<svg width="719" height="710" viewBox="0 0 719 710" fill="none" xmlns="http://www.w3.org/2000/svg">
<ellipse cx="15" cy="15" rx="15" ry="15" transform="rotate(-180 15 15)" fill="black"/>
<ellipse cx="55" cy="15" rx="15" ry="15" transform="rotate(-180 55 15)" fill="black"/>
<ellipse cx="95" cy="15" rx="15" ry="15" transform="rotate(-180 95 15)" fill="black"/>
<ellipse cx="135" cy="15" rx="15" ry="15" transform="rotate(-180 135 15)" fill="black"/>
<ellipse cx="175" cy="15" rx="15" ry="15" transform="rotate(-180 175 15)" fill="black"/>
<ellipse cx="215" cy="15" rx="15" ry="15" transform="rotate(-180 215 15)" fill="black"/>
<ellipse cx="255" cy="15" rx="15" ry="15" transform="rotate(-180 255 15)" fill="black"/>
<ellipse cx="295" cy="15" rx="15" ry="15" transform="rotate(-180 295 15)" fill="black"/>
<ellipse cx="335" cy="15" rx="15" ry="15" transform="rotate(-180 335 15)" fill="black"/>
<ellipse cx="375" cy="15" rx="15" ry="15" transform="rotate(-180 375 15)" fill="black"/>
<ellipse cx="415" cy="15" rx="15" ry="15" transform="rotate(-180 415 15)" fill="black"/>
<ellipse cx="455" cy="15" rx="15" ry="15" transform="rotate(-180 455 15)" fill="black"/>
<ellipse cx="495" cy="15" rx="15" ry="15" transform="rotate(-180 495 15)" fill="black"/>
<ellipse cx="535" cy="15" rx="15" ry="15" transform="rotate(-180 535 15)" fill="black"/>
<ellipse cx="575" cy="15" rx="15" ry="15" transform="rotate(-180 575 15)" fill="black"/>
<ellipse cx="615" cy="15" rx="15" ry="15" transform="rotate(-180 615 15)" fill="black"/>
<ellipse cx="655" cy="15" rx="15" ry="15" transform="rotate(-180 655 15)" fill="black"/>
<ellipse cx="695" cy="15" rx="15" ry="15" transform="rotate(-180 695 15)" fill="black"/>
<ellipse cx="15" cy="55" rx="15" ry="15" transform="rotate(-180 15 55)" fill="black"/>
<ellipse cx="55" cy="55" rx="15" ry="15" transform="rotate(-180 55 55)" fill="black"/>
<ellipse cx="95" cy="55" rx="15" ry="15" transform="rotate(-180 95 55)" fill="black"/>
<ellipse cx="135" cy="55" rx="15" ry="15" transform="rotate(-180 135 55)" fill="black"/>
<ellipse cx="175" cy="55" rx="15" ry="15" transform="rotate(-180 175 55)" fill="black"/>
<ellipse cx="215" cy="55" rx="15" ry="15" transform="rotate(-180 215 55)" fill="black"/>
<ellipse cx="255" cy="55" rx="15" ry="15" transform="rotate(-180 255 55)" fill="black"/>
<ellipse cx="295" cy="55" rx="15" ry="15" transform="rotate(-180 295 55)" fill="black"/>
<ellipse cx="335" cy="55" rx="15" ry="15" transform="rotate(-180 335 55)" fill="black"/>
<ellipse cx="375" cy="55" rx="15" ry="15" transform="rotate(-180 375 55)" fill="black"/>
<ellipse cx="415" cy="55" rx="15" ry="15" transform="rotate(-180 415 55)" fill="black"/>
<ellipse cx="455" cy="55" rx="15" ry="15" transform="rotate(-180 455 55)" fill="black"/>
<ellipse cx="495" cy="55" rx="15" ry="15" transform="rotate(-180 495 55)" fill="black"/>
<ellipse cx="535" cy="55" rx="15" ry="15" transform="rotate(-180 535 55)" fill="black"/>
<ellipse cx="575" cy="55" rx="15" ry="15" transform="rotate(-180 575 55)" fill="black"/>
<ellipse cx="615" cy="55" rx="15" ry="15" transform="rotate(-180 615 55)" fill="black"/>
<ellipse cx="655" cy="55" rx="15" ry="15" transform="rotate(-180 655 55)" fill="black"/>
<ellipse cx="695" cy="55" rx="15" ry="15" transform="rotate(-180 695 55)" fill="black"/>
<ellipse cx="15" cy="95" rx="15" ry="15" transform="rotate(-180 15 95)" fill="black"/>
<ellipse cx="55" cy="95" rx="15" ry="15" transform="rotate(-180 55 95)" fill="black"/>
<ellipse cx="95" cy="95" rx="15" ry="15" transform="rotate(-180 95 95)" fill="black"/>
<ellipse cx="135" cy="95" rx="15" ry="15" transform="rotate(-180 135 95)" fill="black"/>
<ellipse cx="175" cy="95" rx="15" ry="15" transform="rotate(-180 175 95)" fill="black"/>
<ellipse cx="215" cy="95" rx="15" ry="15" transform="rotate(-180 215 95)" fill="black"/>
<ellipse cx="255" cy="95" rx="15" ry="15" transform="rotate(-180 255 95)" fill="black"/>
<ellipse cx="295" cy="95" rx="15" ry="15" transform="rotate(-180 295 95)" fill="black"/>
<ellipse cx="335" cy="95" rx="15" ry="15" transform="rotate(-180 335 95)" fill="black"/>
<ellipse cx="375" cy="95" rx="15" ry="15" transform="rotate(-180 375 95)" fill="black"/>
<ellipse cx="415" cy="95" rx="15" ry="15" transform="rotate(-180 415 95)" fill="black"/>
<ellipse cx="455" cy="95" rx="15" ry="15" transform="rotate(-180 455 95)" fill="black"/>
<ellipse cx="495" cy="95" rx="15" ry="15" transform="rotate(-180 495 95)" fill="black"/>
<ellipse cx="535" cy="95" rx="15" ry="15" transform="rotate(-180 535 95)" fill="black"/>
<ellipse cx="575" cy="95" rx="15" ry="15" transform="rotate(-180 575 95)" fill="black"/>
<ellipse cx="615" cy="95" rx="15" ry="15" transform="rotate(-180 615 95)" fill="black"/>
<ellipse cx="655" cy="95" rx="15" ry="15" transform="rotate(-180 655 95)" fill="black"/>
<ellipse cx="695" cy="95" rx="15" ry="15" transform="rotate(-180 695 95)" fill="black"/>
<ellipse cx="15" cy="135" rx="15" ry="15" transform="rotate(-180 15 135)" fill="black"/>
<ellipse cx="55" cy="135" rx="15" ry="15" transform="rotate(-180 55 135)" fill="black"/>
<ellipse cx="95" cy="135" rx="15" ry="15" transform="rotate(-180 95 135)" fill="black"/>
<ellipse cx="135" cy="135" rx="15" ry="15" transform="rotate(-180 135 135)" fill="black"/>
<ellipse cx="175" cy="135" rx="15" ry="15" transform="rotate(-180 175 135)" fill="black"/>
<ellipse cx="215" cy="135" rx="15" ry="15" transform="rotate(-180 215 135)" fill="black"/>
<ellipse cx="255" cy="135" rx="15" ry="15" transform="rotate(-180 255 135)" fill="black"/>
<ellipse cx="295" cy="135" rx="15" ry="15" transform="rotate(-180 295 135)" fill="black"/>
<ellipse cx="335" cy="135" rx="15" ry="15" transform="rotate(-180 335 135)" fill="black"/>
<ellipse cx="375" cy="135" rx="15" ry="15" transform="rotate(-180 375 135)" fill="black"/>
<ellipse cx="415" cy="135" rx="15" ry="15" transform="rotate(-180 415 135)" fill="black"/>
<ellipse cx="455" cy="135" rx="15" ry="15" transform="rotate(-180 455 135)" fill="black"/>
<ellipse cx="495" cy="135" rx="15" ry="15" transform="rotate(-180 495 135)" fill="black"/>
<ellipse cx="535" cy="135" rx="15" ry="15" transform="rotate(-180 535 135)" fill="black"/>
<ellipse cx="575" cy="135" rx="15" ry="15" transform="rotate(-180 575 135)" fill="black"/>
<ellipse cx="615" cy="135" rx="15" ry="15" transform="rotate(-180 615 135)" fill="black"/>
<ellipse cx="655" cy="135" rx="15" ry="15" transform="rotate(-180 655 135)" fill="black"/>
<ellipse cx="695" cy="135" rx="15" ry="15" transform="rotate(-180 695 135)" fill="black"/>
<ellipse cx="15" cy="175" rx="15" ry="15" transform="rotate(-180 15 175)" fill="black"/>
<ellipse cx="55" cy="175" rx="15" ry="15" transform="rotate(-180 55 175)" fill="black"/>
<ellipse cx="95" cy="175" rx="15" ry="15" transform="rotate(-180 95 175)" fill="black"/>
<ellipse cx="135" cy="175" rx="15" ry="15" transform="rotate(-180 135 175)" fill="black"/>
<ellipse cx="175" cy="175" rx="15" ry="15" transform="rotate(-180 175 175)" fill="black"/>
<ellipse cx="215" cy="175" rx="15" ry="15" transform="rotate(-180 215 175)" fill="black"/>
<ellipse cx="255" cy="175" rx="15" ry="15" transform="rotate(-180 255 175)" fill="black"/>
<ellipse cx="295" cy="175" rx="15" ry="15" transform="rotate(-180 295 175)" fill="black"/>
<ellipse cx="335" cy="175" rx="15" ry="15" transform="rotate(-180 335 175)" fill="black"/>
<ellipse cx="375" cy="175" rx="15" ry="15" transform="rotate(-180 375 175)" fill="black"/>
<ellipse cx="415" cy="175" rx="15" ry="15" transform="rotate(-180 415 175)" fill="black"/>
<ellipse cx="455" cy="175" rx="15" ry="15" transform="rotate(-180 455 175)" fill="black"/>
<ellipse cx="495" cy="175" rx="15" ry="15" transform="rotate(-180 495 175)" fill="black"/>
<ellipse cx="535" cy="175" rx="15" ry="15" transform="rotate(-180 535 175)" fill="black"/>
<ellipse cx="575" cy="175" rx="15" ry="15" transform="rotate(-180 575 175)" fill="black"/>
<ellipse cx="615" cy="175" rx="15" ry="15" transform="rotate(-180 615 175)" fill="black"/>
<ellipse cx="655" cy="175" rx="15" ry="15" transform="rotate(-180 655 175)" fill="black"/>
<ellipse cx="695" cy="175" rx="15" ry="15" transform="rotate(-180 695 175)" fill="black"/>
<ellipse cx="15" cy="215" rx="15" ry="15" transform="rotate(-180 15 215)" fill="black"/>
<ellipse cx="55" cy="215" rx="15" ry="15" transform="rotate(-180 55 215)" fill="black"/>
<ellipse cx="95" cy="215" rx="15" ry="15" transform="rotate(-180 95 215)" fill="black"/>
<ellipse cx="135" cy="215" rx="15" ry="15" transform="rotate(-180 135 215)" fill="black"/>
<ellipse cx="175" cy="215" rx="15" ry="15" transform="rotate(-180 175 215)" fill="black"/>
<ellipse cx="215" cy="215" rx="15" ry="15" transform="rotate(-180 215 215)" fill="black"/>
<ellipse cx="255" cy="215" rx="15" ry="15" transform="rotate(-180 255 215)" fill="black"/>
<ellipse cx="295" cy="215" rx="15" ry="15" transform="rotate(-180 295 215)" fill="black"/>
<ellipse cx="335" cy="215" rx="15" ry="15" transform="rotate(-180 335 215)" fill="black"/>
<ellipse cx="375" cy="215" rx="15" ry="15" transform="rotate(-180 375 215)" fill="black"/>
<ellipse cx="415" cy="215" rx="15" ry="15" transform="rotate(-180 415 215)" fill="black"/>
<ellipse cx="455" cy="215" rx="15" ry="15" transform="rotate(-180 455 215)" fill="black"/>
<ellipse cx="495" cy="215" rx="15" ry="15" transform="rotate(-180 495 215)" fill="black"/>
<ellipse cx="535" cy="215" rx="15" ry="15" transform="rotate(-180 535 215)" fill="black"/>
<ellipse cx="575" cy="215" rx="15" ry="15" transform="rotate(-180 575 215)" fill="black"/>
<ellipse cx="615" cy="215" rx="15" ry="15" transform="rotate(-180 615 215)" fill="black"/>
<ellipse cx="655" cy="215" rx="15" ry="15" transform="rotate(-180 655 215)" fill="black"/>
<ellipse cx="695" cy="215" rx="15" ry="15" transform="rotate(-180 695 215)" fill="black"/>
<ellipse cx="15" cy="255" rx="15" ry="15" transform="rotate(-180 15 255)" fill="black"/>
<ellipse cx="55" cy="255" rx="15" ry="15" transform="rotate(-180 55 255)" fill="black"/>
<ellipse cx="95" cy="255" rx="15" ry="15" transform="rotate(-180 95 255)" fill="black"/>
<ellipse cx="135" cy="255" rx="15" ry="15" transform="rotate(-180 135 255)" fill="black"/>
<ellipse cx="175" cy="255" rx="15" ry="15" transform="rotate(-180 175 255)" fill="black"/>
<ellipse cx="215" cy="255" rx="15" ry="15" transform="rotate(-180 215 255)" fill="black"/>
<ellipse cx="255" cy="255" rx="15" ry="15" transform="rotate(-180 255 255)" fill="black"/>
<ellipse cx="295" cy="255" rx="15" ry="15" transform="rotate(-180 295 255)" fill="black"/>
<ellipse cx="335" cy="255" rx="15" ry="15" transform="rotate(-180 335 255)" fill="black"/>
<ellipse cx="375" cy="255" rx="15" ry="15" transform="rotate(-180 375 255)" fill="black"/>
<ellipse cx="415" cy="255" rx="15" ry="15" transform="rotate(-180 415 255)" fill="black"/>
<ellipse cx="455" cy="255" rx="15" ry="15" transform="rotate(-180 455 255)" fill="black"/>
<ellipse cx="495" cy="255" rx="15" ry="15" transform="rotate(-180 495 255)" fill="black"/>
<ellipse cx="535" cy="255" rx="15" ry="15" transform="rotate(-180 535 255)" fill="black"/>
<ellipse cx="575" cy="255" rx="15" ry="15" transform="rotate(-180 575 255)" fill="black"/>
<ellipse cx="615" cy="255" rx="15" ry="15" transform="rotate(-180 615 255)" fill="black"/>
<ellipse cx="655" cy="255" rx="15" ry="15" transform="rotate(-180 655 255)" fill="black"/>
<ellipse cx="695" cy="255" rx="15" ry="15" transform="rotate(-180 695 255)" fill="black"/>
<ellipse cx="15" cy="295" rx="15" ry="15" transform="rotate(-180 15 295)" fill="black"/>
<ellipse cx="55" cy="295" rx="15" ry="15" transform="rotate(-180 55 295)" fill="black"/>
<ellipse cx="95" cy="295" rx="15" ry="15" transform="rotate(-180 95 295)" fill="black"/>
<ellipse cx="135" cy="295" rx="15" ry="15" transform="rotate(-180 135 295)" fill="black"/>
<ellipse cx="175" cy="295" rx="15" ry="15" transform="rotate(-180 175 295)" fill="black"/>
<ellipse cx="215" cy="295" rx="15" ry="15" transform="rotate(-180 215 295)" fill="black"/>
<ellipse cx="255" cy="295" rx="15" ry="15" transform="rotate(-180 255 295)" fill="black"/>
<ellipse cx="295" cy="295" rx="15" ry="15" transform="rotate(-180 295 295)" fill="black"/>
<ellipse cx="335" cy="295" rx="15" ry="15" transform="rotate(-180 335 295)" fill="black"/>
<ellipse cx="375" cy="295" rx="15" ry="15" transform="rotate(-180 375 295)" fill="black"/>
<ellipse cx="415" cy="295" rx="15" ry="15" transform="rotate(-180 415 295)" fill="black"/>
<ellipse cx="455" cy="295" rx="15" ry="15" transform="rotate(-180 455 295)" fill="black"/>
<ellipse cx="495" cy="295" rx="15" ry="15" transform="rotate(-180 495 295)" fill="black"/>
<ellipse cx="535" cy="295" rx="15" ry="15" transform="rotate(-180 535 295)" fill="black"/>
<ellipse cx="575" cy="295" rx="15" ry="15" transform="rotate(-180 575 295)" fill="black"/>
<ellipse cx="615" cy="295" rx="15" ry="15" transform="rotate(-180 615 295)" fill="black"/>
<ellipse cx="655" cy="295" rx="15" ry="15" transform="rotate(-180 655 295)" fill="black"/>
<ellipse cx="695" cy="295" rx="15" ry="15" transform="rotate(-180 695 295)" fill="black"/>
<ellipse cx="20" cy="335" rx="15" ry="15" transform="rotate(-180 20 335)" fill="black"/>
<ellipse cx="60" cy="335" rx="15" ry="15" transform="rotate(-180 60 335)" fill="black"/>
<ellipse cx="100" cy="335" rx="15" ry="15" transform="rotate(-180 100 335)" fill="black"/>
<ellipse cx="140" cy="335" rx="15" ry="15" transform="rotate(-180 140 335)" fill="black"/>
<ellipse cx="180" cy="335" rx="15" ry="15" transform="rotate(-180 180 335)" fill="black"/>
<ellipse cx="220" cy="335" rx="15" ry="15" transform="rotate(-180 220 335)" fill="black"/>
<ellipse cx="260" cy="335" rx="15" ry="15" transform="rotate(-180 260 335)" fill="black"/>
<ellipse cx="300" cy="335" rx="15" ry="15" transform="rotate(-180 300 335)" fill="black"/>
<ellipse cx="340" cy="335" rx="15" ry="15" transform="rotate(-180 340 335)" fill="black"/>
<ellipse cx="380" cy="335" rx="15" ry="15" transform="rotate(-180 380 335)" fill="black"/>
<ellipse cx="420" cy="335" rx="15" ry="15" transform="rotate(-180 420 335)" fill="black"/>
<ellipse cx="460" cy="335" rx="15" ry="15" transform="rotate(-180 460 335)" fill="black"/>
<ellipse cx="500" cy="335" rx="15" ry="15" transform="rotate(-180 500 335)" fill="black"/>
<ellipse cx="540" cy="335" rx="15" ry="15" transform="rotate(-180 540 335)" fill="black"/>
<ellipse cx="580" cy="335" rx="15" ry="15" transform="rotate(-180 580 335)" fill="black"/>
<ellipse cx="620" cy="335" rx="15" ry="15" transform="rotate(-180 620 335)" fill="black"/>
<ellipse cx="660" cy="335" rx="15" ry="15" transform="rotate(-180 660 335)" fill="black"/>
<ellipse cx="700" cy="335" rx="15" ry="15" transform="rotate(-180 700 335)" fill="black"/>
<ellipse cx="20" cy="375" rx="15" ry="15" transform="rotate(-180 20 375)" fill="black"/>
<ellipse cx="60" cy="375" rx="15" ry="15" transform="rotate(-180 60 375)" fill="black"/>
<ellipse cx="100" cy="375" rx="15" ry="15" transform="rotate(-180 100 375)" fill="black"/>
<ellipse cx="140" cy="375" rx="15" ry="15" transform="rotate(-180 140 375)" fill="black"/>
<ellipse cx="180" cy="375" rx="15" ry="15" transform="rotate(-180 180 375)" fill="black"/>
<ellipse cx="220" cy="375" rx="15" ry="15" transform="rotate(-180 220 375)" fill="black"/>
<ellipse cx="260" cy="375" rx="15" ry="15" transform="rotate(-180 260 375)" fill="black"/>
<ellipse cx="300" cy="375" rx="15" ry="15" transform="rotate(-180 300 375)" fill="black"/>
<ellipse cx="340" cy="375" rx="15" ry="15" transform="rotate(-180 340 375)" fill="black"/>
<ellipse cx="380" cy="375" rx="15" ry="15" transform="rotate(-180 380 375)" fill="black"/>
<ellipse cx="420" cy="375" rx="15" ry="15" transform="rotate(-180 420 375)" fill="black"/>
<ellipse cx="460" cy="375" rx="15" ry="15" transform="rotate(-180 460 375)" fill="black"/>
<ellipse cx="500" cy="375" rx="15" ry="15" transform="rotate(-180 500 375)" fill="black"/>
<ellipse cx="540" cy="375" rx="15" ry="15" transform="rotate(-180 540 375)" fill="black"/>
<ellipse cx="580" cy="375" rx="15" ry="15" transform="rotate(-180 580 375)" fill="black"/>
<ellipse cx="620" cy="375" rx="15" ry="15" transform="rotate(-180 620 375)" fill="black"/>
<ellipse cx="660" cy="375" rx="15" ry="15" transform="rotate(-180 660 375)" fill="black"/>
<ellipse cx="700" cy="375" rx="15" ry="15" transform="rotate(-180 700 375)" fill="black"/>
<ellipse cx="20" cy="415" rx="15" ry="15" transform="rotate(-180 20 415)" fill="black"/>
<ellipse cx="60" cy="415" rx="15" ry="15" transform="rotate(-180 60 415)" fill="black"/>
<ellipse cx="100" cy="415" rx="15" ry="15" transform="rotate(-180 100 415)" fill="black"/>
<ellipse cx="140" cy="415" rx="15" ry="15" transform="rotate(-180 140 415)" fill="black"/>
<ellipse cx="180" cy="415" rx="15" ry="15" transform="rotate(-180 180 415)" fill="black"/>
<ellipse cx="220" cy="415" rx="15" ry="15" transform="rotate(-180 220 415)" fill="black"/>
<ellipse cx="260" cy="415" rx="15" ry="15" transform="rotate(-180 260 415)" fill="black"/>
<ellipse cx="300" cy="415" rx="15" ry="15" transform="rotate(-180 300 415)" fill="black"/>
<ellipse cx="340" cy="415" rx="15" ry="15" transform="rotate(-180 340 415)" fill="black"/>
<ellipse cx="380" cy="415" rx="15" ry="15" transform="rotate(-180 380 415)" fill="black"/>
<ellipse cx="420" cy="415" rx="15" ry="15" transform="rotate(-180 420 415)" fill="black"/>
<ellipse cx="460" cy="415" rx="15" ry="15" transform="rotate(-180 460 415)" fill="black"/>
<ellipse cx="500" cy="415" rx="15" ry="15" transform="rotate(-180 500 415)" fill="black"/>
<ellipse cx="540" cy="415" rx="15" ry="15" transform="rotate(-180 540 415)" fill="black"/>
<ellipse cx="580" cy="415" rx="15" ry="15" transform="rotate(-180 580 415)" fill="black"/>
<ellipse cx="620" cy="415" rx="15" ry="15" transform="rotate(-180 620 415)" fill="black"/>
<ellipse cx="660" cy="415" rx="15" ry="15" transform="rotate(-180 660 415)" fill="black"/>
<ellipse cx="700" cy="415" rx="15" ry="15" transform="rotate(-180 700 415)" fill="black"/>
<ellipse cx="24" cy="455" rx="15" ry="15" transform="rotate(-180 24 455)" fill="black"/>
<ellipse cx="64" cy="455" rx="15" ry="15" transform="rotate(-180 64 455)" fill="black"/>
<ellipse cx="104" cy="455" rx="15" ry="15" transform="rotate(-180 104 455)" fill="black"/>
<ellipse cx="144" cy="455" rx="15" ry="15" transform="rotate(-180 144 455)" fill="black"/>
<ellipse cx="184" cy="455" rx="15" ry="15" transform="rotate(-180 184 455)" fill="black"/>
<ellipse cx="224" cy="455" rx="15" ry="15" transform="rotate(-180 224 455)" fill="black"/>
<ellipse cx="264" cy="455" rx="15" ry="15" transform="rotate(-180 264 455)" fill="black"/>
<ellipse cx="304" cy="455" rx="15" ry="15" transform="rotate(-180 304 455)" fill="black"/>
<ellipse cx="344" cy="455" rx="15" ry="15" transform="rotate(-180 344 455)" fill="black"/>
<ellipse cx="384" cy="455" rx="15" ry="15" transform="rotate(-180 384 455)" fill="black"/>
<ellipse cx="424" cy="455" rx="15" ry="15" transform="rotate(-180 424 455)" fill="black"/>
<ellipse cx="464" cy="455" rx="15" ry="15" transform="rotate(-180 464 455)" fill="black"/>
<ellipse cx="504" cy="455" rx="15" ry="15" transform="rotate(-180 504 455)" fill="black"/>
<ellipse cx="544" cy="455" rx="15" ry="15" transform="rotate(-180 544 455)" fill="black"/>
<ellipse cx="584" cy="455" rx="15" ry="15" transform="rotate(-180 584 455)" fill="black"/>
<ellipse cx="624" cy="455" rx="15" ry="15" transform="rotate(-180 624 455)" fill="black"/>
<ellipse cx="664" cy="455" rx="15" ry="15" transform="rotate(-180 664 455)" fill="black"/>
<ellipse cx="704" cy="455" rx="15" ry="15" transform="rotate(-180 704 455)" fill="black"/>
<ellipse cx="24" cy="495" rx="15" ry="15" transform="rotate(-180 24 495)" fill="black"/>
<ellipse cx="64" cy="495" rx="15" ry="15" transform="rotate(-180 64 495)" fill="black"/>
<ellipse cx="104" cy="495" rx="15" ry="15" transform="rotate(-180 104 495)" fill="black"/>
<ellipse cx="144" cy="495" rx="15" ry="15" transform="rotate(-180 144 495)" fill="black"/>
<ellipse cx="184" cy="495" rx="15" ry="15" transform="rotate(-180 184 495)" fill="black"/>
<ellipse cx="224" cy="495" rx="15" ry="15" transform="rotate(-180 224 495)" fill="black"/>
<ellipse cx="264" cy="495" rx="15" ry="15" transform="rotate(-180 264 495)" fill="black"/>
<ellipse cx="304" cy="495" rx="15" ry="15" transform="rotate(-180 304 495)" fill="black"/>
<ellipse cx="344" cy="495" rx="15" ry="15" transform="rotate(-180 344 495)" fill="black"/>
<ellipse cx="384" cy="495" rx="15" ry="15" transform="rotate(-180 384 495)" fill="black"/>
<ellipse cx="424" cy="495" rx="15" ry="15" transform="rotate(-180 424 495)" fill="black"/>
<ellipse cx="464" cy="495" rx="15" ry="15" transform="rotate(-180 464 495)" fill="black"/>
<ellipse cx="504" cy="495" rx="15" ry="15" transform="rotate(-180 504 495)" fill="black"/>
<ellipse cx="544" cy="495" rx="15" ry="15" transform="rotate(-180 544 495)" fill="black"/>
<ellipse cx="584" cy="495" rx="15" ry="15" transform="rotate(-180 584 495)" fill="black"/>
<ellipse cx="624" cy="495" rx="15" ry="15" transform="rotate(-180 624 495)" fill="black"/>
<ellipse cx="664" cy="495" rx="15" ry="15" transform="rotate(-180 664 495)" fill="black"/>
<ellipse cx="704" cy="495" rx="15" ry="15" transform="rotate(-180 704 495)" fill="black"/>
<ellipse cx="24" cy="535" rx="15" ry="15" transform="rotate(-180 24 535)" fill="black"/>
<ellipse cx="64" cy="535" rx="15" ry="15" transform="rotate(-180 64 535)" fill="black"/>
<ellipse cx="104" cy="535" rx="15" ry="15" transform="rotate(-180 104 535)" fill="black"/>
<ellipse cx="144" cy="535" rx="15" ry="15" transform="rotate(-180 144 535)" fill="black"/>
<ellipse cx="184" cy="535" rx="15" ry="15" transform="rotate(-180 184 535)" fill="black"/>
<ellipse cx="224" cy="535" rx="15" ry="15" transform="rotate(-180 224 535)" fill="black"/>
<ellipse cx="264" cy="535" rx="15" ry="15" transform="rotate(-180 264 535)" fill="black"/>
<ellipse cx="304" cy="535" rx="15" ry="15" transform="rotate(-180 304 535)" fill="black"/>
<ellipse cx="344" cy="535" rx="15" ry="15" transform="rotate(-180 344 535)" fill="black"/>
<ellipse cx="384" cy="535" rx="15" ry="15" transform="rotate(-180 384 535)" fill="black"/>
<ellipse cx="424" cy="535" rx="15" ry="15" transform="rotate(-180 424 535)" fill="black"/>
<ellipse cx="464" cy="535" rx="15" ry="15" transform="rotate(-180 464 535)" fill="black"/>
<ellipse cx="504" cy="535" rx="15" ry="15" transform="rotate(-180 504 535)" fill="black"/>
<ellipse cx="544" cy="535" rx="15" ry="15" transform="rotate(-180 544 535)" fill="black"/>
<ellipse cx="584" cy="535" rx="15" ry="15" transform="rotate(-180 584 535)" fill="black"/>
<ellipse cx="624" cy="535" rx="15" ry="15" transform="rotate(-180 624 535)" fill="black"/>
<ellipse cx="664" cy="535" rx="15" ry="15" transform="rotate(-180 664 535)" fill="black"/>
<ellipse cx="704" cy="535" rx="15" ry="15" transform="rotate(-180 704 535)" fill="black"/>
<ellipse cx="24" cy="575" rx="15" ry="15" transform="rotate(-180 24 575)" fill="black"/>
<ellipse cx="64" cy="575" rx="15" ry="15" transform="rotate(-180 64 575)" fill="black"/>
<ellipse cx="104" cy="575" rx="15" ry="15" transform="rotate(-180 104 575)" fill="black"/>
<ellipse cx="144" cy="575" rx="15" ry="15" transform="rotate(-180 144 575)" fill="black"/>
<ellipse cx="184" cy="575" rx="15" ry="15" transform="rotate(-180 184 575)" fill="black"/>
<ellipse cx="224" cy="575" rx="15" ry="15" transform="rotate(-180 224 575)" fill="black"/>
<ellipse cx="264" cy="575" rx="15" ry="15" transform="rotate(-180 264 575)" fill="black"/>
<ellipse cx="304" cy="575" rx="15" ry="15" transform="rotate(-180 304 575)" fill="black"/>
<ellipse cx="344" cy="575" rx="15" ry="15" transform="rotate(-180 344 575)" fill="black"/>
<ellipse cx="384" cy="575" rx="15" ry="15" transform="rotate(-180 384 575)" fill="black"/>
<ellipse cx="424" cy="575" rx="15" ry="15" transform="rotate(-180 424 575)" fill="black"/>
<ellipse cx="464" cy="575" rx="15" ry="15" transform="rotate(-180 464 575)" fill="black"/>
<ellipse cx="504" cy="575" rx="15" ry="15" transform="rotate(-180 504 575)" fill="black"/>
<ellipse cx="544" cy="575" rx="15" ry="15" transform="rotate(-180 544 575)" fill="black"/>
<ellipse cx="584" cy="575" rx="15" ry="15" transform="rotate(-180 584 575)" fill="black"/>
<ellipse cx="624" cy="575" rx="15" ry="15" transform="rotate(-180 624 575)" fill="black"/>
<ellipse cx="664" cy="575" rx="15" ry="15" transform="rotate(-180 664 575)" fill="black"/>
<ellipse cx="704" cy="575" rx="15" ry="15" transform="rotate(-180 704 575)" fill="black"/>
<ellipse cx="24" cy="615" rx="15" ry="15" transform="rotate(-180 24 615)" fill="black"/>
<ellipse cx="64" cy="615" rx="15" ry="15" transform="rotate(-180 64 615)" fill="black"/>
<ellipse cx="104" cy="615" rx="15" ry="15" transform="rotate(-180 104 615)" fill="black"/>
<ellipse cx="144" cy="615" rx="15" ry="15" transform="rotate(-180 144 615)" fill="black"/>
<ellipse cx="184" cy="615" rx="15" ry="15" transform="rotate(-180 184 615)" fill="black"/>
<ellipse cx="224" cy="615" rx="15" ry="15" transform="rotate(-180 224 615)" fill="black"/>
<ellipse cx="264" cy="615" rx="15" ry="15" transform="rotate(-180 264 615)" fill="black"/>
<ellipse cx="304" cy="615" rx="15" ry="15" transform="rotate(-180 304 615)" fill="black"/>
<ellipse cx="344" cy="615" rx="15" ry="15" transform="rotate(-180 344 615)" fill="black"/>
<ellipse cx="384" cy="615" rx="15" ry="15" transform="rotate(-180 384 615)" fill="black"/>
<ellipse cx="424" cy="615" rx="15" ry="15" transform="rotate(-180 424 615)" fill="black"/>
<ellipse cx="464" cy="615" rx="15" ry="15" transform="rotate(-180 464 615)" fill="black"/>
<ellipse cx="504" cy="615" rx="15" ry="15" transform="rotate(-180 504 615)" fill="black"/>
<ellipse cx="544" cy="615" rx="15" ry="15" transform="rotate(-180 544 615)" fill="black"/>
<ellipse cx="584" cy="615" rx="15" ry="15" transform="rotate(-180 584 615)" fill="black"/>
<ellipse cx="624" cy="615" rx="15" ry="15" transform="rotate(-180 624 615)" fill="black"/>
<ellipse cx="664" cy="615" rx="15" ry="15" transform="rotate(-180 664 615)" fill="black"/>
<ellipse cx="704" cy="615" rx="15" ry="15" transform="rotate(-180 704 615)" fill="black"/>
<ellipse cx="24" cy="655" rx="15" ry="15" transform="rotate(-180 24 655)" fill="black"/>
<ellipse cx="64" cy="655" rx="15" ry="15" transform="rotate(-180 64 655)" fill="black"/>
<ellipse cx="104" cy="655" rx="15" ry="15" transform="rotate(-180 104 655)" fill="black"/>
<ellipse cx="144" cy="655" rx="15" ry="15" transform="rotate(-180 144 655)" fill="black"/>
<ellipse cx="184" cy="655" rx="15" ry="15" transform="rotate(-180 184 655)" fill="black"/>
<ellipse cx="224" cy="655" rx="15" ry="15" transform="rotate(-180 224 655)" fill="black"/>
<ellipse cx="264" cy="655" rx="15" ry="15" transform="rotate(-180 264 655)" fill="black"/>
<ellipse cx="304" cy="655" rx="15" ry="15" transform="rotate(-180 304 655)" fill="black"/>
<ellipse cx="344" cy="655" rx="15" ry="15" transform="rotate(-180 344 655)" fill="black"/>
<ellipse cx="384" cy="655" rx="15" ry="15" transform="rotate(-180 384 655)" fill="black"/>
<ellipse cx="424" cy="655" rx="15" ry="15" transform="rotate(-180 424 655)" fill="black"/>
<ellipse cx="464" cy="655" rx="15" ry="15" transform="rotate(-180 464 655)" fill="black"/>
<ellipse cx="504" cy="655" rx="15" ry="15" transform="rotate(-180 504 655)" fill="black"/>
<ellipse cx="544" cy="655" rx="15" ry="15" transform="rotate(-180 544 655)" fill="black"/>
<ellipse cx="584" cy="655" rx="15" ry="15" transform="rotate(-180 584 655)" fill="black"/>
<ellipse cx="624" cy="655" rx="15" ry="15" transform="rotate(-180 624 655)" fill="black"/>
<ellipse cx="664" cy="655" rx="15" ry="15" transform="rotate(-180 664 655)" fill="black"/>
<ellipse cx="704" cy="655" rx="15" ry="15" transform="rotate(-180 704 655)" fill="black"/>
<ellipse cx="24" cy="695" rx="15" ry="15" transform="rotate(-180 24 695)" fill="black"/>
<ellipse cx="64" cy="695" rx="15" ry="15" transform="rotate(-180 64 695)" fill="black"/>
<ellipse cx="104" cy="695" rx="15" ry="15" transform="rotate(-180 104 695)" fill="black"/>
<ellipse cx="144" cy="695" rx="15" ry="15" transform="rotate(-180 144 695)" fill="black"/>
<ellipse cx="184" cy="695" rx="15" ry="15" transform="rotate(-180 184 695)" fill="black"/>
<ellipse cx="224" cy="695" rx="15" ry="15" transform="rotate(-180 224 695)" fill="black"/>
<ellipse cx="264" cy="695" rx="15" ry="15" transform="rotate(-180 264 695)" fill="black"/>
<ellipse cx="304" cy="695" rx="15" ry="15" transform="rotate(-180 304 695)" fill="black"/>
<ellipse cx="344" cy="695" rx="15" ry="15" transform="rotate(-180 344 695)" fill="black"/>
<ellipse cx="384" cy="695" rx="15" ry="15" transform="rotate(-180 384 695)" fill="black"/>
<ellipse cx="424" cy="695" rx="15" ry="15" transform="rotate(-180 424 695)" fill="black"/>
<ellipse cx="464" cy="695" rx="15" ry="15" transform="rotate(-180 464 695)" fill="black"/>
<ellipse cx="504" cy="695" rx="15" ry="15" transform="rotate(-180 504 695)" fill="black"/>
<ellipse cx="544" cy="695" rx="15" ry="15" transform="rotate(-180 544 695)" fill="black"/>
<ellipse cx="584" cy="695" rx="15" ry="15" transform="rotate(-180 584 695)" fill="black"/>
<ellipse cx="624" cy="695" rx="15" ry="15" transform="rotate(-180 624 695)" fill="black"/>
<ellipse cx="664" cy="695" rx="15" ry="15" transform="rotate(-180 664 695)" fill="black"/>
<ellipse cx="704" cy="695" rx="15" ry="15" transform="rotate(-180 704 695)" fill="black"/>
</svg>
