<svg width="688" height="380" viewBox="0 0 688 380" fill="none" xmlns="http://www.w3.org/2000/svg">
<path d="M6.53087 224.943L8.44445 248.44C8.44445 248.44 4.06551 260.149 6.53087 267.011C9.05652 274.039 20.3087 280.275 20.3087 280.275L49.7778 288.613C49.7778 288.613 80.2677 287.755 92.642 275.348C101.542 266.425 103.862 258.489 106.42 246.166C109.009 233.691 105.272 213.574 105.272 213.574C105.272 213.574 120.432 205.171 129.383 208.647C133.947 210.419 135.146 213.702 139.333 216.226C159.377 228.309 175.968 215.445 199.42 216.226C223.525 217.03 237.22 216.626 261.037 220.395C293.453 225.525 311.133 231.89 341.79 243.513C359.477 250.219 386.186 262.842 386.186 262.842L422.161 302.256C422.161 302.256 430.581 307.183 424.84 298.845C419.099 290.508 411.062 277.243 411.062 277.243L430.963 300.74L437.469 307.183C437.469 307.183 443.894 311.731 440.531 303.393C437.169 295.055 424.84 279.517 424.84 279.517L441.679 300.74C441.679 300.74 445.889 303.393 445.124 297.329C444.358 291.266 429.05 269.663 429.05 269.663C429.05 269.663 455.074 288.234 457.753 292.403C460.432 296.571 461.581 292.403 461.198 289.371C460.815 286.339 456.223 280.654 456.223 280.654L442.827 262.842L434.408 247.303L463.877 265.495C463.877 265.495 467.521 266.683 469.235 265.495C471.684 263.797 469.235 257.915 469.235 257.915L453.544 247.303L408.766 225.701L363.988 216.226L324.951 205.615L277.111 187.045L234.63 180.223L200.951 168.095L221.235 141.566C229.156 131.206 235.46 117.097 250.704 109.352C263.018 103.096 285.531 102.91 285.531 102.91L298.543 105.184L309.642 108.973L324.951 115.795C324.951 115.795 336.099 122.476 345.049 122.238C354 122 356.874 120.85 363.988 118.827C369.228 117.337 371.162 117.439 376.362 115.795C380.51 114.484 382.957 114.73 387.349 113.933C387.349 113.933 394.35 114.997 398.815 115.795C411.945 118.143 419.172 120.152 432.111 123.375C441.112 125.617 446.793 125.285 455.074 129.439C468.365 136.104 472.172 145.197 481.482 156.726C490.775 168.233 494.623 175.698 502.531 188.181C514.806 207.557 523.627 217.644 532 238.966C539.844 258.938 539.272 274.78 544.63 292.403C549.988 310.025 549.988 312.868 549.988 312.868V322.606C549.988 322.606 545.778 328.027 553.432 333.333C561.087 338.639 577.924 335.412 593.618 336.744C609.311 338.076 613.973 353.306 628.445 361.757C638.118 367.405 644.342 380.168 654.087 374.642C656.113 373.494 657.267 372.693 658.68 370.853C661.698 366.92 660.879 363.278 660.593 358.346C659.84 345.342 647.664 342.483 640.692 331.438C634.312 321.331 626.149 304.53 626.149 304.53C626.149 304.53 632.358 310.064 636.865 312.868C648.599 320.167 657.614 326.535 670.926 322.721C675.421 321.434 678.95 321.205 681.643 317.416C683.439 314.888 684.237 312.912 683.939 309.836C683.402 304.306 677.574 303.869 673.223 300.361C663.514 292.535 656.646 290.097 646.433 282.928C634.092 274.265 624.633 270.087 615.815 259.431L593.235 232.144L585.963 210.163L578.692 171.885L559.939 118.827C559.939 118.827 562.051 97.5835 545.013 87.3712L501.383 61.2212C501.383 61.2212 473.103 50.5078 455.074 43.4089C441.741 38.1587 434.376 34.9411 421.013 29.7654C405.992 23.9477 397.901 19.6244 382.358 15.364C365.686 10.7938 356.017 8.34887 338.729 7.78424C326 7.36853 318.933 10.0007 306.198 10.0582C287.132 10.1442 280.012 0.330216 257.593 5.51033C235.174 10.6904 221.226 11.8803 200.185 18.7748C179.145 25.6694 174.926 35.0712 174.926 35.0712L161.914 44.9248L141.247 63.4952L126.704 74.1068L107.568 99.1198L93.0248 133.229L78.8643 149.904L55.1358 166.2L45.5679 163.926C45.5679 163.926 39.2754 161.322 35.2346 162.031C31.7514 162.643 29.5774 163.587 27.1975 166.2C24.0036 169.707 24.1358 177.949 24.1358 177.949C24.1358 177.949 20.2867 177.776 19.1605 179.465C17.9035 181.35 20.3087 185.15 20.3087 185.15C20.3087 185.15 16.7375 185.815 15.3333 187.424C13.0937 189.989 15.3333 196.14 15.3333 196.14C15.3333 196.14 10.7948 194.833 8.44445 196.14C6.49651 197.224 5 200.688 5 200.688L9.5926 215.847V222.29L6.53087 224.943Z" fill="black" stroke="black" stroke-width="8"/>
</svg>
