<svg width="504" height="438" viewBox="0 0 504 438" fill="none" xmlns="http://www.w3.org/2000/svg">
<path d="M56.8996 384.96C75.1804 386.955 112.547 386.241 115.767 367.429C119.791 343.914 123.909 290.087 81.3465 263.627C38.7835 237.168 144.288 30.4438 141.676 217.118C139.065 403.792 187.425 247.794 253.085 281.003C318.746 314.212 479.808 265.492 375.211 252.629C270.615 239.766 253.669 212.027 311.96 149.468C370.251 86.9089 330.553 33.862 252.251 119.833C173.949 205.804 210.918 124.296 195.47 125.865" stroke="#B61427" stroke-width="5" stroke-linecap="round"/>
<path d="M30.8866 125.882C29.5924 143.132 33.7017 177.078 60.4921 174.86C93.9802 172.088 170.213 161.089 203.984 114.942C237.756 68.7956 537.976 108.498 274.567 157.309C11.158 206.121 235.115 207.523 193.745 276.625C152.374 345.727 234.437 479.527 243.888 380.43C253.34 281.333 291.043 258.241 384.085 294.344C477.126 330.447 548.622 279.626 420.91 231.66C293.199 183.694 411.186 195.118 407.691 181.434" stroke="#B61427" stroke-width="5" stroke-linecap="round"/>
<path d="M139.125 78.3204C151.021 87.5841 39.5709 98.1106 178.571 112.006C317.571 125.902 171.057 125.481 171.057 151.588C171.057 177.694 221.304 250.12 207.686 205.485C194.068 160.851 221.304 197.906 258.402 231.592C295.5 265.278 342.929 354.124 268.733 298.964C194.537 243.804 314.753 362.126 286.578 369.705C258.402 377.284 355.139 274.12 342.929 390.758" stroke="#B61427" stroke-width="5" stroke-linecap="round"/>
<path d="M399.772 77.3961C390.727 94.0472 338.046 -28.9288 365.585 133.615C393.124 296.159 344.007 129.656 307.139 138.514C270.271 147.372 185.04 228.999 243.452 198.392C301.864 167.784 258.776 211.283 223.792 264.836C188.809 318.389 79.4312 402.389 132.154 299.426C184.877 196.463 58.5716 373.111 38.3085 343.69C18.0454 314.27 196.557 389.106 27.6964 414.819" stroke="#B61427" stroke-width="5" stroke-linecap="round"/>
</svg>
