<svg width="714" height="173" viewBox="0 0 714 173" fill="none" xmlns="http://www.w3.org/2000/svg">
<path d="M45.3767 67.5188L45.3767 105.16" stroke="black" stroke-width="8" stroke-linecap="round"/>
<path d="M668.623 67.5188L668.623 105.16" stroke="black" stroke-width="8" stroke-linecap="round"/>
<path d="M710 75.1646L710 97.5138" stroke="black" stroke-width="8" stroke-linecap="round"/>
<path d="M4 75.1646L4 97.5138" stroke="black" stroke-width="8" stroke-linecap="round"/>
<path d="M86.7535 58.1086L86.7535 113.982" stroke="black" stroke-width="8" stroke-linecap="round"/>
<path d="M627.247 58.1086L627.247 113.982" stroke="black" stroke-width="8" stroke-linecap="round"/>
<path d="M128.13 42.229L128.13 130.45" stroke="black" stroke-width="8" stroke-linecap="round"/>
<path d="M585.87 45.7576L585.87 133.978" stroke="black" stroke-width="8" stroke-linecap="round"/>
<path d="M169.507 42.229L169.507 151.034" stroke="black" stroke-width="8" stroke-linecap="round"/>
<path d="M544.493 42.229L544.493 151.034" stroke="black" stroke-width="8" stroke-linecap="round"/>
<path d="M210.884 21.6443L210.884 130.45" stroke="black" stroke-width="8" stroke-linecap="round"/>
<path d="M503.116 21.6443L503.116 130.45" stroke="black" stroke-width="8" stroke-linecap="round"/>
<path d="M252.26 21.6443L252.26 151.034" stroke="black" stroke-width="8" stroke-linecap="round"/>
<path d="M293.637 21.6443L293.637 168.679" stroke="black" stroke-width="8" stroke-linecap="round"/>
<path d="M335.014 4L335.014 151.034" stroke="black" stroke-width="8" stroke-linecap="round"/>
<path d="M377.256 21.6443L376.391 162.793" stroke="black" stroke-width="8" stroke-linecap="round"/>
<path d="M419.498 9.88135L418.633 151.03" stroke="black" stroke-width="8" stroke-linecap="round"/>
<path d="M461.74 21.6443L460.874 162.793" stroke="black" stroke-width="8" stroke-linecap="round"/>
</svg>
