<svg width="683" height="367" viewBox="0 0 683 367" fill="none" xmlns="http://www.w3.org/2000/svg">
<path d="M8.56839 99.3594C10.0576 99.3678 11.2939 99.8002 12.5115 100.029C13.7385 100.258 14.9561 100.284 16.3984 99.4696C18.2529 98.4522 19.5173 97.0023 20.4352 95.2473C21.3906 93.5092 22.0275 91.4575 22.5894 89.2192C23.32 86.718 23.5073 85.175 23.1795 82.8773C22.936 80.8764 21.6996 79.9692 20.4352 79.079C19.1895 78.1972 17.9251 77.3324 17.6254 75.4502C17.4381 74.1615 17.5505 72.9406 17.9064 71.7875C18.281 70.626 18.8898 69.5323 19.714 68.4894C20.5289 67.4551 21.5592 66.4716 22.7393 65.5474C23.9288 64.6317 25.2681 63.767 26.7292 62.9615C28.1903 62.1476 29.7732 61.4015 31.4216 60.7062C33.0701 60.011 34.7934 59.3751 36.5262 58.7901C38.2776 58.2051 40.0384 57.6794 41.7712 57.2047C43.5039 56.7214 45.1992 56.2975 46.8101 55.9244C49.6761 55.2631 52.0739 55.4751 54.2562 56.0855C56.4666 56.6959 58.4522 57.7134 60.4565 58.6545C62.4889 59.604 64.5214 60.4773 66.8067 60.808C69.1014 61.1302 71.6209 60.9012 74.5806 59.638C76.6879 58.7393 78.2333 57.4251 79.5071 55.9244C80.7903 54.4322 81.8018 52.762 82.8321 51.168C83.853 49.5656 84.8926 48.031 86.2226 46.8101C87.5526 45.5892 89.1729 44.6735 91.3552 44.309C94.4835 43.7918 96.4129 43.7918 99.0729 44.6396C101.115 45.284 102.154 46.3523 102.566 47.7173C102.979 49.0908 102.772 50.7526 102.314 52.5754C101.855 54.4068 101.152 56.3992 100.581 58.4255C100.019 60.4519 99.5974 62.5121 99.691 64.4622C99.8315 66.8277 99.0916 69.0236 98.7825 71.0499C98.4922 73.0847 98.6327 74.95 100.553 76.6457C103.007 78.7738 105.301 79.9607 109.16 79.664C112.391 79.3248 113.59 77.2731 114.733 74.9754C115.304 73.8308 115.876 72.6269 116.662 71.5332C117.458 70.4395 118.479 69.4644 119.95 68.7777C123.088 67.3279 125.851 67.5568 128.651 67.7857C131.47 67.9638 134.308 68.1333 137.511 66.6496C139.338 65.7763 140.593 64.5894 141.576 63.3006C142.569 62.0034 143.281 60.6045 144.021 59.2564C144.761 57.9168 145.519 56.6366 146.578 55.5853C147.645 54.5255 149.013 53.6946 150.98 53.2622C153.237 52.7704 154.642 53.135 155.607 53.9744C156.571 54.7883 157.115 56.077 157.648 57.4251C158.192 58.7647 158.725 60.1891 159.653 61.2997C160.599 62.3765 161.947 63.1226 164.111 63.1565C167.67 63.1141 169.965 62.5969 173.692 61.376C175.725 60.6893 177.336 59.6719 178.619 58.4425C179.912 57.2131 180.886 55.7803 181.626 54.2118C182.365 52.6517 182.899 50.9561 183.321 49.2349C183.752 47.5223 184.07 45.7842 184.37 44.1055C184.679 42.4268 184.969 40.7989 185.335 39.3152C185.709 37.8399 186.149 36.5004 186.739 35.4236C187.901 33.2786 189.68 32.1424 192.781 32.7868C195.487 33.3633 196.199 35.0082 196.948 36.6445C197.698 38.2893 198.475 39.9087 201.238 40.3496C203.739 40.748 206.155 39.9595 208.572 39.1371C210.969 38.3317 213.386 37.5008 215.812 37.8569C217.694 38.1282 218.771 38.9337 219.455 40.0359C220.13 41.172 220.411 42.6048 220.682 44.0716C220.954 45.5214 221.216 46.9712 221.872 48.1751C222.527 49.3876 223.576 50.371 225.403 50.8289C228.728 51.6428 230.779 49.9217 232.202 46.9203C232.886 45.4281 233.42 43.6222 233.879 41.6552C234.113 40.6802 234.328 39.6628 234.535 38.6369C234.741 37.611 234.937 36.5767 235.134 35.5338C235.321 34.4825 235.518 33.4227 235.724 32.3714C235.93 31.3285 236.146 30.3026 236.38 29.3107C236.839 27.3267 237.363 25.4784 238.056 23.9184C239.433 20.8746 241.391 20.1285 244.65 18.8907C246.813 18.967 248.097 19.8657 248.93 21.1799C249.764 22.5025 250.157 24.2575 250.522 26.021C250.897 27.81 251.253 29.6583 252.03 31.1505C252.798 32.6512 253.988 33.7957 256.02 34.1857C258.053 34.6097 259.795 34.7453 261.593 34.5758C263.391 34.4062 265.218 33.9229 267.456 33.1005C270.182 32.1085 272.027 30.1246 273.46 27.7167C274.172 26.5213 274.79 25.2156 275.361 23.8845C275.923 22.5534 276.448 21.1968 276.963 19.8827C277.478 18.5685 277.993 17.2883 278.555 16.0928C279.117 14.9058 279.726 13.8121 280.428 12.8625C281.843 10.9803 283.603 9.70007 286.132 9.49659C288.006 9.35246 289.27 9.90356 290.244 10.8192C291.209 11.7349 291.874 13.0236 292.529 14.3378C293.185 15.6858 293.831 17.0763 294.758 18.1615C295.686 19.2553 296.894 20.0437 298.683 20.1794C300.491 20.3235 301.989 20.2981 303.516 20.0353C305.033 19.7809 306.578 19.2892 308.48 18.5092C309.847 17.9496 311.112 17.373 312.282 16.7372C313.453 16.1182 314.521 15.44 315.514 14.6769C316.507 13.9138 317.424 13.0745 318.277 12.1249C319.12 11.1668 319.906 10.107 320.637 8.89462C321.536 7.42786 321.386 5.97805 321.386 4.63846C321.386 3.3243 321.527 2.12037 323.007 1.11144C324.28 0.246637 325.479 -0.0161948 326.687 0.000762024C327.905 0.0177189 329.132 0.314464 330.471 0.594252C332.354 0.984259 333.122 2.07798 333.337 3.57018C333.44 4.31628 333.412 5.16412 333.309 6.05436C333.206 6.94459 333.028 7.88569 332.85 8.83528C332.672 9.79334 332.504 10.7514 332.391 11.6755C332.279 12.5997 332.232 13.4814 332.326 14.2869C332.513 15.9148 333.244 17.1696 335.061 17.6698C336.541 18.0768 337.824 18.2718 339.135 18.2294C340.456 18.1954 341.823 17.9326 343.462 17.4324C345.56 16.8219 346.74 15.3721 347.452 13.5493C347.808 12.6506 348.052 11.6501 348.239 10.6242C348.417 9.61529 348.539 8.57244 348.67 7.54656C348.791 6.52915 348.913 5.52869 349.1 4.61302C349.278 3.69735 349.522 2.85799 349.869 2.16276C350.58 0.763822 351.742 -0.0840202 353.83 0.0855481C356.237 0.314465 357.08 1.6371 359.431 2.09493C361.82 2.58668 363.787 2.01863 365.753 1.48449C367.73 0.97578 369.697 0.492512 372.076 1.18774C374.492 1.94232 375.681 3.49387 376.272 5.43543C376.562 6.41045 376.702 7.47873 376.768 8.5894C376.833 9.70855 376.824 10.8701 376.815 12.0486C376.805 13.2356 376.796 14.4141 376.88 15.5332C376.955 16.6609 377.105 17.7376 377.414 18.7042C378.042 20.6711 379.297 22.2142 381.797 22.9095C381.797 22.9095 384.092 23.4605 385.544 23.5623C386.883 23.6556 387.885 23.3418 388.644 22.7144C389.403 22.0955 389.909 21.1629 390.255 20.0522C390.602 18.95 390.789 17.6528 390.883 16.2793C390.986 14.9058 391.004 13.456 391.014 12.0571C391.032 10.6666 391.051 9.30159 391.145 8.06374C391.239 6.82589 391.416 5.71522 391.763 4.8165C392.447 3.02756 393.786 2.12037 396.446 2.87495C398.656 3.51931 400.174 5.07086 401.279 7.04633C401.832 8.04678 402.272 9.14898 402.656 10.2936C403.03 11.4466 403.33 12.6421 403.602 13.8206C403.864 15.0076 404.098 16.1776 404.323 17.2713C404.548 18.382 404.773 19.4163 405.016 20.2896C405.522 22.0531 406.14 23.2062 407.151 23.2232C407.151 23.2232 409.737 23.274 412.322 23.3418C414.907 23.4097 417.492 23.4775 417.492 23.4775C419.515 23.5453 420.386 25.8939 421.36 28.6154C421.856 29.9889 422.371 31.4727 423.074 32.8038C423.786 34.1349 424.675 35.3134 425.921 36.0764C428.169 37.4754 429.433 36.848 430.23 35.1608C430.623 34.3214 430.904 33.2277 431.119 32.0068C431.335 30.7944 431.494 29.4378 431.653 28.0728C431.822 26.7078 431.981 25.3428 432.215 24.0879C432.449 22.8331 432.749 21.6716 433.17 20.7135C434.023 18.8144 435.381 17.7122 437.741 18.3057C439.802 18.8229 440.972 19.4079 442.911 20.5864C444.26 21.4088 445.215 22.3414 445.88 23.3673C446.555 24.3932 446.929 25.5038 447.098 26.6908C447.276 27.8778 447.238 29.1326 447.107 30.4383C446.967 31.7524 446.723 33.1175 446.461 34.5249C446.199 35.9493 445.927 37.3991 445.721 38.8574C445.524 40.3241 445.403 41.8163 445.44 43.3C445.487 44.7922 445.702 46.276 446.18 47.7173C446.658 49.1671 447.388 50.583 448.484 51.9396C450.32 54.2287 451.341 55.8227 453.654 57.2555C455.612 58.4595 456.942 59.0953 458.834 58.9003C460.941 58.6884 461.213 56.7299 461.297 54.4492C461.334 53.3046 461.334 52.0922 461.484 50.9645C461.634 49.8369 461.943 48.8025 462.617 48.0395C462.617 48.0395 464.725 45.9623 466.392 45.1399C467.563 44.5633 468.715 44.1564 469.857 43.8935C471 43.6392 472.152 43.5374 473.332 43.6053C474.503 43.6731 475.711 43.9105 476.985 44.3344C478.249 44.7583 479.579 45.3688 480.994 46.1827C483.232 47.4714 484.609 49.2604 485.546 51.3461C486.005 52.3889 486.361 53.5081 486.66 54.6696C486.951 55.8396 487.185 57.0605 487.419 58.2899C487.644 59.5362 487.868 60.8165 488.14 62.0797C488.412 63.36 488.721 64.6233 489.142 65.8442C489.966 68.3029 491.193 70.6175 493.226 72.5252C494.977 74.17 495.979 75.2806 497.937 76.2133C500.026 77.1968 501.459 76.5778 502.892 75.8063C504.325 75.0263 505.758 74.1191 507.837 74.4921C509.916 74.8652 512.117 75.5011 514.253 76.3998C516.379 77.2985 518.458 78.4601 520.294 79.8929C522.139 81.3258 523.75 83.013 524.949 84.963C526.157 86.93 526.963 89.1598 527.197 91.6694C527.459 94.3995 526.682 96.0019 525.726 97.545C524.771 99.105 523.628 100.631 523.282 103.158L523.253 103.446C522.982 105.489 522.72 107.414 522.57 109.288C522.411 111.17 522.42 112.976 522.617 114.79C522.813 116.621 523.197 118.453 523.872 120.352C524.583 122.209 525.576 124.125 526.944 126.168C528.424 128.339 529.847 129.865 531.43 131.238C533.041 132.603 534.811 133.833 537.059 135.265C539.522 136.902 541.911 137.682 544.224 137.987C546.538 138.267 548.767 138.089 550.94 137.953C553.094 137.851 555.201 137.851 557.262 138.411C559.313 139.081 561.327 140.505 563.322 142.879C564.511 144.286 565.682 145.465 566.59 146.618C567.499 147.763 568.155 148.941 568.323 150.391C568.548 152.333 567.63 153.18 566.234 153.613C564.839 154.011 562.975 153.986 561.355 154.316C559.688 154.656 557.955 154.511 556.185 154.206C554.424 153.969 552.635 153.486 550.837 152.985C549.038 152.494 547.249 152.01 545.489 151.824C543.728 151.629 542.004 151.764 540.365 152.519C538.651 153.316 537.05 153.35 536.413 155.156C535.795 156.987 536.965 158.666 538.792 160.328C540.618 161.981 543.063 163.6 544.992 165.288C547.278 167.314 549.628 168.263 551.989 168.73C554.349 169.196 556.719 169.281 559.023 169.535C561.317 169.976 563.546 170.434 565.654 171.35C567.742 172.223 569.7 173.554 571.47 175.869C573.231 178.149 573.849 180.184 574.383 182.253C574.926 184.322 575.385 186.424 576.856 188.781C577.848 190.375 579.619 192.69 579.619 192.69C579.619 192.69 581.445 193.487 583.477 194.742C585.519 195.988 587.776 197.726 588.676 199.727C589.35 201.236 589.088 202.372 588.348 203.322C587.599 204.28 586.372 205.051 585.098 205.823C583.824 206.603 582.503 207.391 581.604 208.349C580.696 209.316 580.209 210.477 580.602 212.046C581.014 213.742 581.792 215.073 582.831 216.124C583.871 217.175 585.173 217.964 586.634 218.608C588.095 219.253 589.715 219.761 591.382 220.236C593.059 220.719 594.782 221.177 596.468 221.728C599.475 222.72 602.069 223.678 604.56 224.111C607.042 224.535 609.412 224.433 611.988 223.305C614.02 222.407 614.704 220.423 615.435 218.583C616.146 216.743 616.914 215.047 619.134 214.708C620.951 214.428 622.319 214.997 623.414 216.107C624.52 217.226 625.344 218.897 626.074 220.838C626.805 222.78 627.432 224.993 628.126 227.18C628.819 229.376 629.577 231.555 630.589 233.429C631.526 235.184 631.825 236.973 632.303 238.558C632.781 240.152 633.436 241.542 635.094 242.5C636.424 243.281 637.304 243.467 638.709 243.552C641.219 243.713 642.006 241.822 642.643 239.558C642.952 238.422 643.224 237.201 643.655 236.099C644.076 234.997 644.666 234.005 645.603 233.352C647.073 232.326 648.722 232.377 650.258 232.318C651.794 232.259 653.236 232.097 654.313 230.639C655.137 229.529 655.812 228.469 656.168 227.273C656.514 226.078 656.552 224.755 656.102 223.127C655.297 220.279 652.955 220.864 650.379 221.542C647.776 222.22 644.919 222.992 643.186 220.516C642.343 219.329 641.678 218.227 641.266 217.108C640.845 215.988 640.695 214.844 640.873 213.555C641.21 211.207 642.624 210.562 644.245 209.257C645.818 207.993 647.504 207.951 649.237 207.968C650.951 207.985 652.702 208.07 654.397 207.069C656.046 206.086 656.711 204.237 657.46 202.61C658.219 200.99 659.052 199.591 661.029 199.532C662.583 199.481 664.279 199.617 665.721 200.227C667.154 200.846 668.344 201.931 668.896 203.788C669.552 206.018 668.493 207.086 668.119 209.146C667.857 210.647 667.22 211.707 666.751 212.801C666.283 213.903 665.993 215.022 666.414 216.65C666.817 218.21 667.472 219.371 668.325 220.363C669.168 221.355 670.207 222.178 671.388 223.043C672.896 224.162 674.338 223.789 675.715 223.517C677.082 223.246 678.393 223.076 679.639 224.603C680.669 225.883 681.447 227.324 681.821 228.791C682.196 230.258 682.177 231.758 681.634 233.149C680.688 235.557 678.74 235.167 676.661 235.853C674.787 236.472 673.205 236.489 671.584 236.345C669.954 236.201 668.269 235.904 666.189 235.921C663.679 235.938 661.459 234.09 659.699 235.955C658.163 237.575 659.052 239.906 658.509 242.373C658.172 243.866 657.938 245.061 657.647 246.214C657.348 247.376 656.992 248.503 656.402 249.877C655.859 251.115 655.39 252.073 654.856 252.98C654.323 253.887 653.714 254.743 652.871 255.769C651.456 257.414 649.546 257.304 648.703 259.525C647.982 261.221 648.328 262.577 649.087 263.832C649.836 265.079 651.007 266.223 651.944 267.495C653.161 269.191 654.987 269.462 656.673 269.826C658.341 270.199 659.867 270.666 660.532 272.768C660.963 274.133 661.225 275.397 661.207 276.685C661.179 277.974 660.86 279.288 660.13 280.738C659.034 282.909 657.263 283.672 655.381 284.053C653.48 284.426 651.466 284.418 649.911 285.045C649.911 285.045 647.916 285.859 645.902 286.665C643.87 287.47 641.828 288.275 641.828 288.275C640.227 288.903 638.953 291.336 637.613 293.456C636.274 295.584 634.86 297.398 632.977 296.805C630.645 296.093 629.746 294.21 629.587 291.514C629.437 289.072 631.76 285.13 631.76 285.13C631.76 285.13 635.759 281.984 636.265 279.271C636.555 277.711 636.04 276.753 635.3 275.863C634.541 274.973 633.549 274.167 632.874 272.913C631.872 271.064 631.413 269.284 630.786 267.656C630.13 266.037 629.287 264.57 627.507 263.366C625.597 262.103 621.832 261.263 621.832 261.263C621.832 261.263 617.383 261.551 615.65 263.425C614.526 264.621 614.311 265.85 614.395 267.156C614.46 268.461 614.816 269.86 614.863 271.403C614.91 273.938 616.371 273.93 617.486 274.82C618.038 275.27 618.507 275.931 618.647 277.254C618.788 278.576 618.591 280.552 617.842 283.604C617.074 286.656 616.633 288.767 616.418 290.31C616.203 291.853 616.231 292.82 616.39 293.574C616.718 295.092 617.617 295.753 618.291 298.45C618.788 300.493 619.115 302.214 619.677 303.757C620.23 305.3 621.026 306.665 622.45 307.979C623.649 309.073 624.744 309.734 625.962 310.192C627.18 310.642 628.5 310.879 630.139 311.142C632.49 311.515 633.951 311.133 636.377 311.125C638.325 311.116 639.927 310.828 641.472 310.684C643.018 310.54 644.516 310.54 646.249 311.082C647.935 311.617 649.593 311.947 650.904 312.634C652.206 313.329 653.161 314.381 653.461 316.348C653.695 317.899 653.517 319.273 653.039 320.638C652.571 322.003 651.803 323.351 650.857 324.851C649.986 326.242 648.684 327.378 647.223 328.285C645.753 329.201 644.123 329.896 642.596 330.413C639.533 331.456 636.911 331.795 636.911 331.795C636.911 331.795 635.553 332.931 633.727 334.229C631.891 335.526 629.568 336.984 627.629 337.645C624.744 338.654 622.281 339.934 620.183 338.731C619.303 337.925 619.087 336.899 619.143 335.729C619.19 334.559 619.499 333.245 619.64 331.846C619.809 330.193 620.305 329.252 620.502 327.598C620.764 325.496 620.595 322.299 620.595 322.299C620.595 322.299 619.743 321.265 618.619 319.892C617.495 318.518 616.099 316.797 615.041 315.423C613.777 313.796 613.786 311.998 611.847 311.193C609.59 310.243 607.267 310.336 605.048 312.261C603.952 313.227 603.821 314.372 603.746 315.559C603.671 316.754 603.643 317.992 602.743 319.154C601.694 320.502 600.608 321.519 599.4 322.223C598.192 322.927 596.852 323.308 595.316 323.402C593.021 323.537 591.869 322.367 590.952 320.756C590.024 319.145 589.331 317.094 587.954 315.466C586.653 313.931 585.781 312.202 585.07 310.43C584.358 308.666 583.796 306.869 583.14 305.224C582.475 303.571 581.698 302.07 580.555 300.891C579.403 299.713 577.877 298.857 575.704 298.5C573.418 298.127 571.536 298.772 569.634 299.458C567.733 300.137 565.822 300.849 563.49 300.612C561.561 300.4 559.781 301.019 558.704 299.535C557.234 297.508 559.969 295.406 561.626 293.176C562.881 291.48 564.165 290.378 565.598 289.454C567.04 288.53 568.642 287.792 570.552 286.826C572.247 285.969 573.615 285.393 575.02 284.918C576.425 284.443 577.858 284.079 579.684 283.663C581.838 283.171 584.086 283.867 586.044 284.197C588.011 284.536 589.687 284.52 590.755 282.603C591.71 280.891 591.401 279.67 591.289 277.839C591.101 275.185 590.914 273.396 589.088 271.48C587.973 270.31 586.756 269.835 585.407 269.555C584.058 269.275 582.569 269.191 580.902 268.826C578.476 268.275 576.528 268.054 574.561 267.936C572.585 267.826 570.59 267.826 568.061 267.724C565.991 267.639 564.174 268.173 562.451 268.453C560.727 268.741 559.088 268.767 557.393 267.639C555.351 266.274 554.555 264.604 554.274 262.62C554.124 261.628 554.115 260.551 554.134 259.39C554.152 258.219 554.199 256.973 554.199 255.634C554.199 255.634 554.162 252.217 554.087 248.766C553.984 245.298 553.834 241.814 553.834 241.814C553.834 241.814 553.225 238.329 553.515 236.21C553.843 233.785 555.286 232.801 557.327 232.589C559.369 232.386 562.001 232.878 564.717 233.369C567.424 233.827 570.196 234.285 572.519 234.073C574.833 233.844 576.687 232.979 577.53 230.834C578.607 228.028 577.905 226.23 576.069 225.06C574.214 223.873 571.227 223.263 567.696 222.822C565.925 222.585 564.015 222.373 562.048 222.144C560.081 221.906 558.049 221.644 556.035 221.347C554.021 221.076 552.026 220.77 550.125 220.363C548.224 219.999 546.425 219.558 544.796 218.998C542.651 218.286 540.909 217.981 539.195 217.574C537.481 217.167 535.785 216.624 533.734 215.48C530.887 213.886 528.47 213.318 526.916 210.308C525.773 208.12 526.176 206.501 527.065 204.95C527.946 203.406 529.304 201.931 530.063 200.015C530.643 198.54 531.767 197.624 532.61 196.632C533.453 195.64 534.025 194.58 533.5 192.8C532.976 191.053 531.992 189.756 530.718 188.713C529.444 187.645 527.88 186.806 526.204 185.983C523.047 184.466 521.146 184.907 518.074 185.042C515.573 185.178 513.934 185 511.967 186.187C510.534 187.094 509.729 188.196 509.204 189.51C508.68 190.825 508.418 192.368 508.09 194.19C507.603 196.819 508.867 199.388 509.897 201.863C510.9 204.331 511.668 206.679 510.207 208.799C508.839 210.8 507.031 211.859 504.933 212.249C502.835 212.648 500.438 212.343 497.862 211.681C496.167 211.266 494.5 210.622 492.964 209.808C491.418 208.994 490.013 207.968 488.814 206.764C487.644 205.552 486.679 204.144 486.005 202.584C485.33 201.024 484.965 199.311 484.974 197.48C484.974 195.013 485.958 193.572 487.194 192.249C488.44 190.926 489.938 189.731 490.978 187.738C491.821 186.144 493.076 184.873 493.975 183.584C494.884 182.329 495.427 181.04 494.865 179.328C494.865 179.328 494.144 177.14 493.432 174.961C492.786 172.749 492.13 170.544 492.13 170.544C491.624 168.789 490.725 166.941 489.517 165.093C488.309 163.244 486.838 161.37 485.171 159.522C483.157 157.267 481.219 155.97 479.383 155.215C477.547 154.452 475.693 154.299 473.791 154.376C471.88 154.452 469.914 154.774 467.853 154.944C465.793 155.122 463.629 155.19 461.437 154.681C459.592 154.24 458.122 154.198 456.661 154.011C455.209 153.816 453.757 153.469 451.949 152.409C449.823 151.171 448.241 150.976 446.704 148.195C445.478 145.94 445.487 143.829 445.805 141.624C446.114 139.488 446.714 137.241 446.658 134.638C446.611 132.035 446.836 129.559 447.126 127.186C447.416 124.829 447.763 122.582 447.941 120.428C448.119 118.3 448.128 116.282 447.744 114.315C447.36 112.357 446.583 110.441 445.187 108.533L445.14 108.465C443.258 105.896 441.9 104.031 439.521 103.454C437.957 103.073 437.02 103.285 435.746 104.158C435.119 104.591 434.997 104.87 434.81 106.363C434.716 107.109 434.594 108.16 434.388 109.695C434.182 111.238 433.882 113.323 433.414 116.104C432.955 118.911 432.543 121.056 432.196 122.692C431.85 124.337 431.56 125.464 431.325 126.244C430.857 127.796 430.623 127.906 430.623 127.906C430.623 127.906 430.248 132.103 429.227 133.977C428.066 136.215 426.989 137.716 425.003 137.334C422.858 136.919 420.985 134.943 420.264 131.459C419.899 129.695 420.255 127.024 420.255 127.024C420.255 127.024 420.067 124.913 419.552 122.472C419.046 120.03 418.213 117.249 416.92 115.85C414.963 113.713 413.417 113.857 411.301 114.061H411.263C410.308 114.163 408.912 114.782 408.912 114.782C408.912 114.782 408.894 119.165 407.985 121.149C406.73 123.947 405.128 121.539 403.686 117.461C402.974 115.434 402.29 113.001 401.729 110.61C401.157 108.228 400.689 105.905 400.399 104.048C400.061 101.903 400.221 100.3 400.38 98.7065C400.548 97.1295 400.708 95.561 400.38 93.5262C399.865 90.3129 399.752 88.0322 398.02 85.5395C396.802 83.8015 395.809 83.2164 394.254 82.3856C392.437 81.4275 391.164 81.6564 390.227 82.6823C389.29 83.7251 388.71 85.5904 388.288 87.888C387.867 90.2366 387.614 93.1277 387.333 96.0697C387.061 99.0796 386.771 102.14 386.265 104.802C385.937 106.608 385.9 108.236 385.787 109.805C385.684 111.382 385.507 112.908 384.888 114.527V114.536C384.298 116.104 383.942 117.062 383.024 118.08C381.797 119.462 380.458 119.911 379.1 119.563C377.733 119.241 376.346 118.114 375.026 116.384C373.209 114.019 372.862 111.051 372.9 107.778C372.918 106.159 373.04 104.472 373.106 102.751C373.181 101.038 373.209 99.3 373.068 97.5365C372.787 94.2638 373.059 91.6525 373.143 89.1513C373.228 86.7095 373.125 84.3949 372.085 81.7412C371.289 79.7572 370.53 78.1209 369.584 76.8152C368.638 75.5519 367.505 74.6108 365.978 74.0258C363.318 73.178 362.054 75.7893 360.799 78.9264C360.171 80.5627 359.544 82.4025 358.757 84.0134C357.97 85.6667 357.005 87.0656 355.694 87.7863C353.231 89.2192 351.517 87.0572 349.194 89.2616C347.499 90.9488 346.562 93.1616 345.935 95.756C345.317 98.4013 345.017 101.437 344.577 104.769C344.08 108.745 344.652 110.975 344.146 115.146C344.146 115.146 343.771 121.691 342.319 124.693C340.924 127.576 339.126 128.254 337.421 127.567C335.707 126.897 334.077 124.922 333 122.361C331.914 119.809 332.045 117.054 332.485 114.035C332.935 111.034 333.693 107.795 333.89 104.455C334.012 102.488 334.237 100.682 334.499 98.9778C334.752 97.2906 335.033 95.7052 335.267 94.1536C335.726 91.1014 335.951 88.2187 335.286 85.1326C334.845 83.1486 334.489 81.3427 333.909 79.9692C333.328 78.6211 332.504 77.68 331.127 77.4087C329.123 77.0187 327.615 77.9174 325.545 79.7233C324.14 80.9273 322.276 83.7082 322.276 83.7082L318.558 89.9822C318.558 89.9822 316.741 93.594 315.298 95.4508C313.182 98.1554 311.159 99.6052 309.089 100.267C307.019 100.919 304.911 100.801 302.598 100.343C302.598 100.343 300.828 99.885 299.769 99.3509C297.887 98.4182 296.529 97.3076 295.377 95.8493C294.234 94.4164 293.297 92.636 292.267 90.3553C291.284 88.2187 291.012 86.1415 290.769 84.0473C290.534 81.9701 290.328 79.8759 289.485 77.7139C288.568 75.3569 288.802 72.5336 286.685 72.1606C285.186 71.8978 284.081 73.1695 283.032 74.9754C281.983 76.7813 281.009 79.1383 279.754 80.9951C278.799 82.4195 278.059 83.776 277.413 85.0902C276.766 86.3959 276.232 87.6846 275.689 88.9648C274.603 91.5338 273.497 94.1112 271.484 96.9345C270.341 98.5878 269.273 100.267 268.234 101.852C267.203 103.446 266.183 104.955 265.124 106.252C262.97 108.847 260.544 110.551 257.369 110.517C254.334 110.466 252.63 109.584 250.466 107.431C248.94 105.93 248.64 103.912 248.368 101.869C248.097 99.8511 247.853 97.8332 246.42 96.3071C244.847 94.6623 243.226 92.1018 241.456 91.4744C240.304 92.6784 238.777 94.2214 236.829 96.1799C234.019 98.9948 231.95 100.987 230.46 102.361C228.98 103.751 228.128 104.531 227.716 104.913C228.625 104.116 231.004 102.149 230.17 103.819C229.13 105.905 228.803 107.668 228.709 109.474C228.606 111.28 228.737 113.137 228.625 115.417C228.559 116.935 228.54 119.309 228.54 119.309L231.416 124.862C231.416 124.862 233.841 126.668 236.267 128.491C238.702 130.323 241.091 132.179 241.091 132.179C241.091 132.179 244.444 130.034 245.587 131.459C246.589 132.747 245.746 134.46 245.558 136.419C245.296 139.352 245.296 141.319 243.882 143.837C242.411 146.482 240.529 146.991 238.365 146.788C236.211 146.584 233.823 145.694 231.388 145.533C227.95 145.27 226.189 143.379 222.658 143.617C220.233 143.718 217.61 143.557 215.428 144.049C213.227 144.524 211.466 145.66 210.801 148.356C210.304 150.399 210.651 151.747 211.091 153.867C211.597 156.3 212.337 158.225 213.395 159.895C214.454 161.574 215.821 162.998 217.582 164.448C219.774 166.254 221.815 167.356 223.848 167.721C225.862 168.068 227.931 167.738 230.245 166.712C232.034 165.881 233.017 164.219 234.019 162.591C235.031 160.955 236.052 159.353 237.888 158.623C239.826 157.843 241.081 157.42 242.945 157.979C244.734 158.522 245.54 160.056 246.205 161.905C246.87 163.761 247.404 165.94 248.602 167.746C250.176 170.163 251.543 171.875 252.939 173.529C254.344 175.19 255.777 176.793 257.481 178.997C259.158 181.185 260.16 183.72 261.293 185.831C262.436 187.959 263.719 189.663 265.911 190.155C268.037 190.646 269.376 190.24 271.456 189.163C273.245 188.222 275.193 185.797 276.71 183.559C278.218 181.312 279.295 179.311 279.295 179.311C279.295 179.311 280.822 173.367 282.704 171.027C284.371 168.967 286.104 168.085 287.771 168.145C289.429 168.196 291.04 169.205 292.473 170.993C294.187 173.215 294.449 176.225 294.3 179.684C294.234 181.422 294.056 183.27 293.925 185.169C293.784 187.069 293.691 189.019 293.756 190.994C293.841 193.631 293.869 195.75 293.887 197.836C293.906 199.922 293.897 202.008 293.934 204.695C293.99 208.756 293.447 211.3 294.103 215.098C294.543 217.616 295.236 219.566 296.117 221.067C296.997 222.568 298.065 223.619 299.264 224.34C300.462 225.06 301.783 225.45 303.179 225.637C304.565 225.815 306.017 225.781 307.478 225.654C309.454 225.484 310.924 224.306 312.385 222.949C313.847 221.593 315.298 220.058 317.256 219.193C319.419 218.235 321.152 217.32 322.866 216.819C324.589 216.302 326.303 216.217 328.42 216.938C329.928 217.472 330.818 217.718 332.185 219.049C334.218 221.025 336.494 226.62 336.494 226.62C336.494 226.62 340.053 231.292 340.381 236.099C340.634 239.753 339.126 245.375 339.126 245.375C339.126 245.375 339.191 249.063 339.247 252.742C339.304 256.431 339.36 260.17 339.36 260.17L339.491 268.606C339.491 268.606 339.388 272.582 339.725 276.914C339.894 279.076 340.175 281.408 340.624 283.392C341.083 285.359 341.711 286.995 342.582 287.826C345.139 290.276 347.649 289.954 350.037 286.181C351.011 284.655 351.142 282.756 350.852 280.653C350.562 278.593 349.84 276.372 349.129 274.142C348.417 271.895 347.705 269.64 347.415 267.58C347.134 265.519 347.274 263.705 348.276 262.323C350.562 259.144 353.222 257.846 355.273 261.187C356.359 262.959 356.415 266.571 356.2 269.801C355.985 273.031 355.498 275.795 355.498 275.795C355.498 275.795 355.891 279.136 356.294 282.544C356.696 285.969 357.099 289.403 357.099 289.403C357.099 289.403 359.703 292.133 362.316 294.88C364.91 297.619 367.495 300.315 367.495 300.315C369.519 302.392 372.094 301.849 374.342 301.892C376.599 301.934 378.529 302.545 379.278 306.809C379.746 309.438 379.512 311.65 378.8 313.533C378.089 315.406 376.908 316.958 375.475 318.298C374.052 319.629 372.375 320.765 370.68 321.765C368.985 322.766 367.271 323.639 365.772 324.461C362.906 326.038 361.155 326.81 358.317 326.361C355.853 325.945 354.402 323.809 352.997 321.316C351.592 318.789 350.234 315.89 347.986 314.092C346.094 312.566 344.464 312.117 342.825 311.659C341.196 311.201 339.566 310.735 337.674 309.132C336.353 308.039 335.079 307.106 333.871 306.156C332.663 305.181 331.53 304.189 330.509 302.986C329.479 301.79 328.561 300.383 327.774 298.577C326.968 296.762 326.313 294.507 325.807 291.641C325.226 288.343 325.077 285.545 325.114 282.688C325.151 279.831 325.376 276.864 325.545 273.353C325.695 270.267 326.088 267.868 326.444 265.469C326.809 263.078 327.146 260.746 327.184 257.694C327.231 253.743 327.605 249.487 327.512 245.934C327.418 242.45 326.856 239.669 325.02 238.626C323.475 237.753 322.454 238.736 320.834 239.363C318.221 240.372 316.928 242.424 314.371 244.094C311.87 245.756 307.899 247.927 307.899 247.927L303.741 251.276C303.741 251.276 302.448 257.414 302.036 261.543C301.699 265.104 301.287 268.199 301.212 271.132C301.127 274.167 301.362 277.067 302.298 280.204C302.907 282.222 303.506 282.985 304.228 284.825C305.642 288.386 306.382 291.811 307.169 295.067C307.965 298.288 308.826 301.383 310.503 304.342C311.842 306.75 313.434 307.377 314.886 308.183C316.347 308.98 317.687 309.963 318.53 313.16C318.53 313.16 319.438 317.594 319.513 320.553C319.579 322.842 319.438 324.656 319.12 326.437C318.811 328.217 318.324 329.896 317.696 331.787C316.713 334.669 315.495 336.204 314.137 337.51C312.788 338.756 311.299 339.79 309.791 341.681C308.386 343.334 306.55 344.089 305.108 345.081C303.656 346.047 302.607 347.294 302.776 349.897C302.935 352.152 304.125 353.118 304.677 355.272C305.183 357.171 305.773 358.824 306.054 360.393C306.344 361.911 306.326 363.352 305.633 364.802C304.565 366.989 302.57 367.362 300.369 366.726C298.168 366.073 295.761 364.42 293.859 362.546C291.902 360.596 290.881 358.417 290.328 355.95C290.057 354.704 289.888 353.381 289.785 351.999C289.682 350.617 289.635 349.142 289.588 347.557C289.523 345.106 289.429 342.961 289.635 340.969C289.832 338.892 290.328 336.975 291.434 335.017C292.848 332.431 295.077 332.999 297.25 333.457C299.423 333.906 301.53 334.262 302.692 331.185C303.572 328.751 303.825 326.361 303.722 323.826C303.609 321.29 303.15 318.628 302.607 315.559C302.176 313.041 301.483 311.193 300.64 309.667C299.807 308.14 298.814 306.953 297.793 305.8C296.772 304.622 295.714 303.477 294.74 302.027C293.766 300.578 292.876 298.823 292.173 296.466C291.34 293.668 290.759 291.396 290.31 289.055C289.86 286.665 289.542 284.172 289.242 280.993C288.952 277.923 289.045 275.176 289.336 272.616C289.617 270.021 290.085 267.588 290.544 265.24C291.003 262.874 291.452 260.534 291.677 258.067C291.902 255.583 291.902 252.963 291.48 250.14C290.984 246.85 290.534 244.171 289.86 241.805C289.186 239.474 288.296 237.396 286.938 235.234C285.533 232.971 284.231 231.394 282.732 230.359C281.234 229.317 279.614 228.842 277.628 228.782C275.558 228.723 274.088 230.012 272.626 231.428C271.165 232.835 269.714 234.361 267.672 234.828C266.239 235.15 264.843 235.523 263.485 235.803C262.136 236.065 260.825 236.226 259.579 236.125C257.069 235.904 254.737 234.616 252.667 230.936C251.6 229.028 250.991 227.307 250.551 225.467C250.11 223.636 249.848 221.669 249.455 219.295C249.071 216.904 248.958 214.988 248.912 213.055C248.855 211.113 248.865 209.163 248.734 206.713C248.518 203.652 248.893 200.99 249.015 198.472C249.164 195.92 249.043 193.512 247.797 191.036C246.467 188.408 244.481 185.932 242.458 184.712C240.435 183.482 238.347 183.482 236.829 185.831C235.846 187.365 235.855 189.002 236.052 190.757C236.249 192.529 236.633 194.445 236.426 196.505C236.23 198.506 235.818 200.202 235.331 201.77C234.844 203.339 234.263 204.738 233.738 206.145C233.214 207.552 232.736 208.951 232.455 210.554C232.174 212.148 232.081 213.894 232.296 215.98C232.521 218.015 233.27 219.583 233.916 221.126C234.553 222.678 235.078 224.196 234.844 226.112C234.422 229.291 232.821 230.614 230.779 230.877C228.737 231.114 226.199 230.249 223.97 229.147C222.359 228.358 220.963 227.197 219.755 225.747C218.547 224.306 217.535 222.576 216.702 220.643C215.868 218.735 215.194 216.633 214.65 214.395C214.116 212.165 213.732 209.842 213.48 207.476C213.217 204.967 214.117 203.483 214.772 201.838C215.446 200.21 215.887 198.43 214.716 195.344C214.716 195.344 213.18 191.367 211.634 187.501C210.061 183.584 208.506 179.675 208.506 179.675C207.907 178.149 207.017 176.276 205.874 174.292C204.741 172.299 203.355 170.23 201.744 168.272C200.142 166.313 198.325 164.465 196.358 162.956C194.363 161.421 192.153 160.2 189.811 159.556C186.44 158.632 184.229 157.954 181.242 159.081C179.228 159.861 177.851 161.031 176.877 162.642C175.912 164.253 175.35 166.263 174.994 168.781C174.732 170.782 175.21 172.537 175.697 174.292C176.184 176.047 176.69 177.802 176.484 179.828C175.968 185.263 173.112 181.43 169.646 174.953C168.775 173.334 167.876 171.57 166.977 169.807C166.078 168.077 165.179 166.347 164.317 164.686C163.446 163.024 162.612 161.404 161.816 159.946C161.039 158.522 160.299 157.208 159.643 156.114C158.285 153.833 157.171 152.087 156.206 150.264C155.26 148.458 154.455 146.584 153.724 144.091C153.181 142.243 153.265 140.615 153.265 139.038C153.274 137.461 153.209 135.935 152.366 134.307C151.448 132.518 150.427 131.238 149.144 130.255C147.87 129.339 146.315 128.737 144.33 128.203C142.26 127.618 140.115 127.372 137.961 127.457C135.788 127.431 133.606 127.576 131.48 127.957C129.353 128.33 127.302 129.017 125.392 129.966C123.49 130.848 121.729 132.001 120.203 133.46C118.133 135.477 118.32 137.919 118.507 140.344C118.732 142.777 118.957 145.194 116.943 147.101C114.967 149 112.804 150.187 110.312 150.688C107.821 151.137 104.992 150.942 101.695 150.137C99.5505 149.611 97.9208 148.432 96.544 146.957C95.1766 145.473 94.0807 143.693 92.9943 141.963C91.9172 140.234 90.8588 138.564 89.5382 137.292C88.2269 136.029 86.6441 135.172 84.5273 135.07C81.755 134.943 79.657 135.427 77.9711 136.41C76.3039 137.394 75.077 138.886 74.028 140.768C73.2974 142.15 73.2599 143.54 73.6159 144.956C73.9811 146.372 74.7304 147.814 75.5921 149.297C76.4538 150.781 77.4185 152.307 78.2052 153.884C78.992 155.47 79.6008 157.097 79.7506 158.802C80.0129 161.498 80.5093 163.227 79.7319 165.516C79.2449 167 78.7204 168.221 77.8868 169.145C77.0532 170.069 75.9293 170.688 74.234 170.96C71.3961 171.417 69.0546 169.612 66.61 167.271C65.3831 166.101 64.1374 164.796 62.798 163.583C61.4587 162.362 60.0163 161.226 58.4147 160.387C55.4176 158.827 52.8325 158.479 50.3692 157.945C47.9153 157.411 45.5738 156.69 43.0169 154.359C41.1811 152.689 40.4974 150.493 40.3663 148.153C40.3101 146.983 40.385 145.787 40.5348 144.592C40.6941 143.396 40.9095 142.218 41.1249 141.099C41.5838 138.86 41.996 136.851 41.6962 135.435C41.4153 134.019 40.4037 133.205 38.0154 133.341C38.0154 133.341 36.5074 133.443 34.2689 133.587C32.0773 133.731 29.2112 133.943 26.4014 134.155C23.6572 134.375 20.9691 134.613 18.9928 134.791C17.0353 134.969 15.7522 135.096 15.7522 135.096C13.7759 135.299 12.1837 135.147 10.8537 134.723C9.5331 134.299 8.46537 133.595 7.51939 132.68C6.58279 131.764 5.7773 130.645 4.98119 129.39C4.19443 128.135 3.42642 126.753 2.55537 125.303C1.45017 123.379 0.747717 120.674 0.457368 118.47C0.241948 116.265 0.270042 114.536 0.270042 114.536C0.270042 114.536 0.11082 113.323 0.00779304 111.729C-0.0109391 110.135 -0.0109368 108.168 0.185751 106.668C0.457367 105.133 0.625955 103.709 0.981867 102.471C1.34714 101.233 1.89038 100.173 2.94874 99.3678C4.88752 97.9011 6.33927 99.3509 8.56839 99.3594Z" fill="black"/>
</svg>
