<svg width="692" height="377" viewBox="0 0 692 377" fill="none" xmlns="http://www.w3.org/2000/svg">
<path d="M13.5684 104.359C15.0576 104.368 16.2939 104.8 17.5115 105.029C18.7385 105.258 19.9561 105.283 21.3984 104.47C23.2529 103.452 24.5173 102.002 25.4352 100.247C26.3906 98.5092 27.0275 96.4575 27.5894 94.2192C28.32 91.718 28.5073 90.175 28.1795 87.8773C27.936 85.8764 26.6996 84.9692 25.4352 84.079C24.1895 83.1972 22.9251 82.3324 22.6254 80.4502C22.4381 79.1615 22.5505 77.9406 22.9064 76.7875C23.281 75.626 23.8898 74.5323 24.714 73.4894C25.5289 72.4551 26.5592 71.4716 27.7393 70.5474C28.9288 69.6317 30.2681 68.767 31.7292 67.9615C33.1903 67.1476 34.7732 66.4015 36.4216 65.7062C38.0701 65.011 39.7934 64.3751 41.5262 63.7901C43.2776 63.2051 45.0384 62.6794 46.7712 62.2047C48.5039 61.7214 50.1992 61.2975 51.8101 60.9244C54.6761 60.2631 57.0739 60.4751 59.2562 61.0855C61.4666 61.6959 63.4522 62.7134 65.4565 63.6545C67.4889 64.604 69.5214 65.4773 71.8067 65.808C74.1014 66.1302 76.6209 65.9012 79.5806 64.638C81.6879 63.7393 83.2333 62.4251 84.5071 60.9244C85.7903 59.4322 86.8018 57.762 87.8321 56.168C88.853 54.5656 89.8926 53.031 91.2226 51.8101C92.5526 50.5892 94.1729 49.6735 96.3552 49.309C99.4835 48.7918 101.413 48.7918 104.073 49.6396C106.115 50.284 107.154 51.3523 107.566 52.7173C107.979 54.0908 107.772 55.7526 107.314 57.5754C106.855 59.4068 106.152 61.3992 105.581 63.4255C105.019 65.4519 104.597 67.5121 104.691 69.4622C104.832 71.8277 104.092 74.0236 103.783 76.0499C103.492 78.0847 103.633 79.95 105.553 81.6457C108.007 83.7738 110.301 84.9607 114.16 84.664C117.391 84.3248 118.59 82.2731 119.733 79.9754C120.304 78.8308 120.876 77.6269 121.662 76.5332C122.458 75.4395 123.479 74.4644 124.95 73.7777C128.088 72.3279 130.851 72.5568 133.651 72.7857C136.47 72.9638 139.308 73.1333 142.511 71.6496C144.338 70.7763 145.593 69.5894 146.576 68.3006C147.569 67.0034 148.281 65.6045 149.021 64.2564C149.761 62.9168 150.519 61.6366 151.578 60.5853C152.645 59.5255 154.013 58.6946 155.98 58.2622C158.237 57.7704 159.642 58.135 160.607 58.9744C161.571 59.7883 162.114 61.077 162.648 62.4251C163.192 63.7647 163.725 65.1891 164.653 66.2997C165.599 67.3765 166.947 68.1226 169.111 68.1565C172.67 68.1141 174.965 67.5969 178.692 66.376C180.725 65.6893 182.336 64.6719 183.619 63.4425C184.912 62.2131 185.886 60.7803 186.626 59.2118C187.365 57.6517 187.899 55.9561 188.321 54.2349C188.752 52.5223 189.07 50.7842 189.37 49.1055C189.679 47.4268 189.969 45.7989 190.335 44.3152C190.709 42.8399 191.149 41.5004 191.739 40.4236C192.901 38.2786 194.68 37.1424 197.781 37.7868C200.487 38.3633 201.199 40.0082 201.948 41.6445C202.698 43.2893 203.475 44.9087 206.238 45.3496C208.739 45.748 211.155 44.9595 213.572 44.1371C215.969 43.3317 218.386 42.5008 220.812 42.8569C222.694 43.1282 223.771 43.9337 224.455 45.0359C225.13 46.172 225.411 47.6048 225.682 49.0716C225.954 50.5214 226.216 51.9712 226.872 53.1751C227.527 54.3876 228.576 55.371 230.403 55.8289C233.728 56.6428 235.779 54.9217 237.202 51.9203C237.886 50.4281 238.42 48.6222 238.879 46.6552C239.113 45.6802 239.328 44.6628 239.535 43.6369C239.741 42.611 239.937 41.5767 240.134 40.5338C240.321 39.4825 240.518 38.4227 240.724 37.3714C240.93 36.3285 241.146 35.3026 241.38 34.3107C241.839 32.3267 242.363 30.4784 243.056 28.9184C244.433 25.8746 246.391 25.1285 249.65 23.8907C251.813 23.967 253.097 24.8657 253.93 26.1799C254.764 27.5025 255.157 29.2575 255.522 31.021C255.897 32.81 256.253 34.6583 257.03 36.1505C257.798 37.6512 258.988 38.7957 261.02 39.1857C263.053 39.6097 264.795 39.7453 266.593 39.5758C268.391 39.4062 270.218 38.9229 272.456 38.1005C275.182 37.1085 277.027 35.1246 278.46 32.7167C279.172 31.5213 279.79 30.2156 280.361 28.8845C280.923 27.5534 281.448 26.1968 281.963 24.8827C282.478 23.5685 282.993 22.2883 283.555 21.0928C284.117 19.9058 284.726 18.8121 285.428 17.8625C286.843 15.9803 288.603 14.7001 291.132 14.4966C293.006 14.3525 294.27 14.9036 295.244 15.8192C296.209 16.7349 296.874 18.0236 297.529 19.3378C298.185 20.6858 298.831 22.0763 299.758 23.1615C300.686 24.2553 301.894 25.0437 303.683 25.1794C305.491 25.3235 306.989 25.2981 308.516 25.0353C310.033 24.7809 311.578 24.2892 313.48 23.5092C314.847 22.9496 316.112 22.373 317.282 21.7372C318.453 21.1182 319.521 20.44 320.514 19.6769C321.507 18.9138 322.424 18.0745 323.277 17.1249C324.12 16.1668 324.906 15.107 325.637 13.8946C326.536 12.4279 326.386 10.978 326.386 9.63846C326.386 8.3243 326.527 7.12037 328.007 6.11144C329.28 5.24664 330.479 4.98381 331.687 5.00076C332.905 5.01772 334.132 5.31446 335.471 5.59425C337.354 5.98426 338.122 7.07798 338.337 8.57018C338.44 9.31628 338.412 10.1641 338.309 11.0544C338.206 11.9446 338.028 12.8857 337.85 13.8353C337.672 14.7933 337.504 15.7514 337.391 16.6755C337.279 17.5997 337.232 18.4814 337.326 19.2869C337.513 20.9148 338.244 22.1696 340.061 22.6698C341.541 23.0768 342.824 23.2718 344.135 23.2294C345.456 23.1954 346.823 22.9326 348.462 22.4324C350.56 21.8219 351.74 20.3721 352.452 18.5493C352.808 17.6506 353.052 16.6501 353.239 15.6242C353.417 14.6153 353.539 13.5724 353.67 12.5466C353.791 11.5291 353.913 10.5287 354.1 9.61302C354.278 8.69735 354.522 7.85799 354.869 7.16276C355.58 5.76382 356.742 4.91598 358.83 5.08555C361.237 5.31447 362.08 6.6371 364.431 7.09493C366.82 7.58668 368.787 7.01863 370.753 6.48449C372.73 5.97578 374.697 5.49251 377.076 6.18774C379.492 6.94232 380.681 8.49387 381.272 10.4354C381.562 11.4104 381.702 12.4787 381.768 13.5894C381.833 14.7086 381.824 15.8701 381.815 17.0486C381.805 18.2356 381.796 19.4141 381.88 20.5332C381.955 21.6609 382.105 22.7376 382.414 23.7042C383.042 25.6711 384.297 27.2142 386.797 27.9095C386.797 27.9095 389.092 28.4605 390.544 28.5623C391.883 28.6556 392.885 28.3418 393.644 27.7144C394.403 27.0955 394.909 26.1629 395.255 25.0522C395.602 23.95 395.789 22.6528 395.883 21.2793C395.986 19.9058 396.004 18.456 396.014 17.0571C396.032 15.6666 396.051 14.3016 396.145 13.0637C396.239 11.8259 396.416 10.7152 396.763 9.8165C397.447 8.02756 398.786 7.12037 401.446 7.87495C403.656 8.51931 405.174 10.0709 406.279 12.0463C406.832 13.0468 407.272 14.149 407.656 15.2936C408.03 16.4466 408.33 17.6421 408.602 18.8206C408.864 20.0076 409.098 21.1776 409.323 22.2713C409.548 23.382 409.773 24.4163 410.016 25.2896C410.522 27.0531 411.14 28.2062 412.151 28.2232C414.175 28.2655 415.748 28.2995 417.322 28.3334C418.904 28.3758 420.478 28.4182 422.492 28.4775C424.515 28.5453 425.386 30.8939 426.36 33.6154C426.856 34.9889 427.371 36.4727 428.074 37.8038C428.786 39.1349 429.675 40.3134 430.921 41.0764C433.169 42.4754 434.433 41.848 435.23 40.1608C435.623 39.3214 435.904 38.2277 436.119 37.0068C436.335 35.7944 436.494 34.4378 436.653 33.0728C436.822 31.7078 436.981 30.3428 437.215 29.088C437.449 27.8331 437.749 26.6716 438.17 25.7135C439.023 23.8144 440.381 22.7122 442.741 23.3057C444.802 23.8229 445.972 24.4079 447.911 25.5864C449.26 26.4088 450.215 27.3414 450.88 28.3673C451.555 29.3932 451.929 30.5038 452.098 31.6908C452.276 32.8778 452.238 34.1326 452.107 35.4383C451.967 36.7524 451.723 38.1175 451.461 39.5249C451.199 40.9493 450.927 42.3991 450.721 43.8574C450.524 45.3241 450.403 46.8163 450.44 48.3C450.487 49.7922 450.702 51.276 451.18 52.7173C451.658 54.1671 452.388 55.583 453.484 56.9396C455.32 59.2287 456.341 60.8227 458.654 62.2555C460.612 63.4595 461.942 64.0953 463.834 63.9003C465.941 63.6884 466.213 61.7299 466.297 59.4492C466.334 58.3046 466.334 57.0922 466.484 55.9645C466.634 54.8369 466.943 53.8025 467.617 53.0395C467.617 53.0395 469.725 50.9623 471.392 50.1399C472.563 49.5633 473.715 49.1564 474.857 48.8935C476 48.6392 477.152 48.5374 478.332 48.6053C479.503 48.6731 480.711 48.9105 481.985 49.3344C483.249 49.7583 484.579 50.3688 485.994 51.1827C488.232 52.4714 489.609 54.2604 490.546 56.3461C491.005 57.3889 491.36 58.5081 491.66 59.6696C491.951 60.8396 492.185 62.0605 492.419 63.2899C492.644 64.5362 492.868 65.8165 493.14 67.0797C493.412 68.36 493.721 69.6233 494.142 70.8442C494.966 73.3029 496.193 75.6175 498.226 77.5252C499.977 79.17 500.979 80.2806 502.937 81.2133C505.026 82.1968 506.459 81.5778 507.892 80.8063C509.325 80.0263 510.758 79.1191 512.837 79.4921C514.916 79.8652 517.117 80.5011 519.253 81.3998C521.379 82.2985 523.458 83.4601 525.294 84.8929C527.139 86.3258 528.75 88.013 529.949 89.963C531.157 91.93 531.962 94.1598 532.197 96.6694C532.459 99.3995 531.682 101.002 530.726 102.545C529.771 104.105 528.628 105.631 528.282 108.158C528.01 110.235 527.748 112.185 527.579 114.093C527.42 115.992 527.411 117.823 527.598 119.663C527.795 121.511 528.169 123.368 528.853 125.293C529.565 127.158 530.567 129.099 531.944 131.168C533.424 133.339 534.847 134.865 536.43 136.238C538.041 137.603 539.811 138.833 542.059 140.265C544.522 141.902 546.911 142.682 549.224 142.987C551.538 143.267 553.767 143.089 555.94 142.953C558.094 142.851 560.201 142.851 562.262 143.411C564.313 144.081 566.327 145.505 568.322 147.879C569.511 149.286 570.682 150.465 571.59 151.618C572.499 152.763 573.155 153.941 573.323 155.391C573.548 157.333 572.63 158.18 571.234 158.613C569.839 159.011 567.975 158.986 566.355 159.316C564.688 159.656 562.955 159.511 561.185 159.206C559.424 158.969 557.635 158.486 555.837 157.985C554.038 157.494 552.249 157.01 550.489 156.824C548.728 156.629 547.004 156.764 545.365 157.519C543.651 158.316 542.05 158.35 541.413 160.156C540.795 161.987 541.965 163.666 543.792 165.328C545.618 166.981 548.063 168.6 549.992 170.288C552.278 172.314 554.628 173.263 556.989 173.73C559.349 174.196 561.719 174.281 564.023 174.535C566.317 174.976 568.546 175.434 570.654 176.35C572.742 177.223 574.7 178.554 576.47 180.869C578.231 183.149 578.849 185.184 579.383 187.253C579.926 189.322 580.385 191.424 581.856 193.781C582.848 195.375 584.619 197.69 584.619 197.69C584.619 197.69 586.445 198.487 588.477 199.742C590.519 200.988 592.777 202.726 593.676 204.727C594.35 206.236 594.088 207.372 593.348 208.322C592.599 209.28 591.372 210.051 590.098 210.823C588.824 211.603 587.503 212.391 586.604 213.349C585.696 214.316 585.209 215.477 585.602 217.046C586.014 218.742 586.792 220.073 587.831 221.124C588.871 222.175 590.173 222.964 591.634 223.608C593.095 224.253 594.715 224.761 596.382 225.236C598.059 225.719 599.782 226.177 601.468 226.728C604.475 227.72 607.069 228.678 609.56 229.111C612.043 229.535 614.412 229.433 616.988 228.305C619.02 227.407 619.704 225.423 620.434 223.583C621.146 221.743 621.914 220.047 624.134 219.708C625.951 219.428 627.319 219.997 628.414 221.107C629.52 222.226 630.344 223.897 631.074 225.838C631.805 227.78 632.432 229.993 633.126 232.18C633.819 234.376 634.577 236.555 635.589 238.429C636.525 240.184 636.825 241.973 637.303 243.558C637.78 245.152 638.436 246.542 640.094 247.5C641.424 248.281 642.304 248.467 643.709 248.552C646.219 248.713 647.006 246.822 647.643 244.558C647.952 243.422 648.224 242.201 648.655 241.099C649.076 239.997 649.666 239.005 650.603 238.352C652.073 237.326 653.722 237.377 655.258 237.318C656.794 237.259 658.236 237.097 659.313 235.639C660.137 234.529 660.812 233.469 661.168 232.273C661.514 231.078 661.552 229.755 661.102 228.127C660.297 225.279 657.955 225.864 655.379 226.542C652.776 227.22 649.919 227.992 648.186 225.516C647.343 224.329 646.678 223.227 646.266 222.108C645.845 220.988 645.695 219.844 645.873 218.555C646.21 216.207 647.624 215.562 649.245 214.257C650.818 212.993 652.504 212.951 654.237 212.968C655.951 212.985 657.702 213.07 659.397 212.069C661.046 211.086 661.711 209.237 662.46 207.61C663.219 205.99 664.052 204.591 666.029 204.532C667.583 204.481 669.279 204.617 670.721 205.227C672.154 205.846 673.344 206.931 673.896 208.788C674.552 211.018 673.493 212.086 673.119 214.146C672.856 215.647 672.22 216.707 671.751 217.801C671.283 218.903 670.993 220.022 671.414 221.65C671.817 223.21 672.472 224.371 673.325 225.363C674.168 226.355 675.207 227.178 676.388 228.043C677.895 229.162 679.338 228.789 680.715 228.517C682.082 228.246 683.393 228.076 684.639 229.603C685.669 230.883 686.447 232.324 686.821 233.791C687.196 235.258 687.177 236.758 686.634 238.149C685.688 240.557 683.74 240.167 681.661 240.853C679.787 241.472 678.205 241.489 676.584 241.345C674.954 241.201 673.269 240.904 671.189 240.921C668.679 240.938 666.459 239.09 664.699 240.955C663.163 242.575 664.052 244.906 663.509 247.373C663.172 248.866 662.938 250.061 662.647 251.214C662.348 252.376 661.992 253.503 661.402 254.877C660.859 256.115 660.39 257.073 659.856 257.98C659.323 258.887 658.714 259.743 657.871 260.769C656.456 262.414 654.546 262.304 653.703 264.525C652.982 266.221 653.328 267.577 654.087 268.832C654.836 270.079 656.007 271.223 656.944 272.495C658.161 274.191 659.988 274.462 661.673 274.826C663.341 275.199 664.867 275.666 665.532 277.768C665.963 279.133 666.225 280.397 666.207 281.685C666.179 282.974 665.86 284.288 665.129 285.738C664.034 287.909 662.263 288.672 660.381 289.053C658.48 289.426 656.466 289.418 654.911 290.045C653.356 290.681 652.139 291.173 650.902 291.665C649.666 292.156 648.43 292.648 646.828 293.275C645.227 293.903 643.953 296.336 642.613 298.456C641.274 300.584 639.86 302.398 637.977 301.805C635.645 301.093 634.746 299.21 634.587 296.514C634.437 294.072 636.76 290.13 636.76 290.13C636.76 290.13 640.759 286.984 641.265 284.271C641.555 282.711 641.04 281.753 640.3 280.863C639.541 279.973 638.549 279.167 637.874 277.913C636.872 276.064 636.413 274.284 635.786 272.656C635.13 271.037 634.287 269.57 632.507 268.366C630.597 267.103 626.832 266.263 626.832 266.263C626.832 266.263 622.383 266.551 620.65 268.425C619.526 269.621 619.311 270.85 619.395 272.156C619.46 273.461 619.816 274.86 619.863 276.403C619.91 278.938 621.371 278.93 622.486 279.82C623.038 280.27 623.507 280.931 623.647 282.254C623.788 283.576 623.591 285.552 622.842 288.604C622.074 291.656 621.633 293.767 621.418 295.31C621.203 296.853 621.231 297.82 621.39 298.574C621.718 300.092 622.617 300.753 623.291 303.45C623.788 305.493 624.115 307.214 624.677 308.757C625.23 310.3 626.026 311.665 627.45 312.979C628.649 314.073 629.744 314.734 630.962 315.192C632.18 315.642 633.5 315.879 635.139 316.142C637.49 316.515 638.951 316.133 641.377 316.125C643.325 316.116 644.927 315.828 646.472 315.684C648.018 315.54 649.516 315.54 651.249 316.082C652.935 316.617 654.593 316.947 655.904 317.634C657.206 318.329 658.161 319.381 658.461 321.348C658.695 322.899 658.517 324.273 658.039 325.638C657.571 327.003 656.803 328.351 655.857 329.851C654.986 331.242 653.684 332.378 652.223 333.285C650.753 334.201 649.123 334.896 647.596 335.413C644.533 336.456 641.911 336.795 641.911 336.795C641.911 336.795 640.553 337.931 638.726 339.229C636.891 340.526 634.568 341.984 632.629 342.645C629.744 343.654 627.281 344.934 625.183 343.731C624.303 342.925 624.087 341.899 624.143 340.729C624.19 339.559 624.499 338.245 624.64 336.846C624.809 335.193 625.305 334.252 625.502 332.598C625.764 330.496 625.595 327.299 625.595 327.299C625.595 327.299 624.743 326.265 623.619 324.891C622.495 323.518 621.1 321.797 620.041 320.423C618.777 318.796 618.786 316.998 616.847 316.193C614.59 315.243 612.267 315.336 610.048 317.261C608.952 318.227 608.821 319.372 608.746 320.559C608.671 321.754 608.643 322.992 607.743 324.154C606.694 325.502 605.608 326.519 604.4 327.223C603.192 327.927 601.852 328.308 600.316 328.402C598.021 328.537 596.869 327.367 595.952 325.756C595.024 324.145 594.331 322.094 592.954 320.466C591.653 318.931 590.781 317.202 590.07 315.43C589.358 313.666 588.796 311.869 588.14 310.224C587.475 308.571 586.698 307.07 585.555 305.891C584.403 304.713 582.877 303.857 580.704 303.5C578.418 303.127 576.536 303.772 574.634 304.459C572.733 305.137 570.822 305.849 568.49 305.612C566.561 305.4 564.781 306.019 563.704 304.535C562.234 302.508 564.969 300.406 566.626 298.176C567.881 296.48 569.165 295.378 570.598 294.454C572.04 293.53 573.642 292.792 575.552 291.826C577.247 290.969 578.615 290.393 580.02 289.918C581.425 289.443 582.858 289.079 584.684 288.663C586.838 288.171 589.086 288.867 591.044 289.197C593.011 289.536 594.687 289.52 595.755 287.603C596.71 285.891 596.401 284.67 596.289 282.839C596.101 280.185 595.914 278.396 594.088 276.48C592.973 275.31 591.756 274.835 590.407 274.555C589.058 274.275 587.569 274.191 585.902 273.826C583.476 273.275 581.528 273.054 579.561 272.936C577.585 272.826 575.59 272.826 573.061 272.724C570.991 272.639 569.174 273.173 567.451 273.453C565.727 273.741 564.088 273.767 562.393 272.639C560.351 271.274 559.555 269.604 559.274 267.62C559.124 266.628 559.115 265.551 559.134 264.39C559.152 263.219 559.199 261.973 559.199 260.634C559.171 257.971 559.143 255.886 559.087 253.775C559.03 251.655 558.956 249.535 558.834 246.814C558.834 246.814 558.225 243.329 558.515 241.209C558.843 238.785 560.286 237.801 562.327 237.589C564.369 237.386 567.001 237.877 569.717 238.369C572.424 238.827 575.196 239.285 577.519 239.073C579.833 238.844 581.687 237.979 582.53 235.834C583.607 233.028 582.905 231.23 581.069 230.06C579.214 228.873 576.227 228.263 572.696 227.822C570.925 227.585 569.015 227.373 567.048 227.144C565.081 226.906 563.049 226.644 561.035 226.347C559.021 226.076 557.026 225.77 555.125 225.363C553.223 224.999 551.425 224.558 549.796 223.998C547.651 223.286 545.909 222.981 544.195 222.574C542.481 222.167 540.785 221.624 538.734 220.48C535.887 218.886 533.47 218.318 531.916 215.308C530.773 213.12 531.176 211.501 532.066 209.95C532.946 208.406 534.304 206.931 535.063 205.015C535.643 203.54 536.767 202.624 537.61 201.632C538.453 200.64 539.025 199.58 538.5 197.8C537.976 196.053 536.992 194.756 535.718 193.713C534.444 192.645 532.88 191.806 531.204 190.983C528.047 189.466 526.146 189.907 523.074 190.042C520.573 190.178 518.934 190 516.967 191.187C515.534 192.094 514.729 193.196 514.204 194.51C513.68 195.825 513.418 197.368 513.09 199.19C512.603 201.819 513.867 204.388 514.897 206.863C515.9 209.331 516.668 211.679 515.207 213.799C513.839 215.8 512.031 216.859 509.933 217.249C507.835 217.648 505.438 217.343 502.862 216.681C501.167 216.266 499.5 215.622 497.964 214.808C496.418 213.994 495.013 212.968 493.814 211.764C492.644 210.552 491.679 209.144 491.005 207.584C490.33 206.024 489.965 204.311 489.974 202.48C489.974 200.013 490.958 198.572 492.194 197.249C493.44 195.926 494.938 194.731 495.978 192.738C496.821 191.144 498.076 189.873 498.975 188.584C499.884 187.329 500.427 186.04 499.865 184.328C499.303 182.624 498.872 181.293 498.441 179.961C498.039 178.613 497.645 177.274 497.13 175.544C496.624 173.789 495.725 171.941 494.517 170.093C493.309 168.244 491.838 166.37 490.171 164.522C488.157 162.267 486.218 160.97 484.383 160.215C482.547 159.452 480.693 159.299 478.791 159.376C476.881 159.452 474.914 159.774 472.853 159.944C470.793 160.122 468.629 160.19 466.437 159.681C464.592 159.24 463.122 159.198 461.661 159.011C460.209 158.816 458.757 158.469 456.949 157.409C454.823 156.171 453.241 155.976 451.704 153.195C450.478 150.94 450.487 148.829 450.805 146.624C451.114 144.488 451.714 142.241 451.658 139.638C451.611 137.035 451.836 134.559 452.126 132.186C452.416 129.829 452.763 127.582 452.941 125.428C453.119 123.3 453.128 121.282 452.744 119.315C452.36 117.357 451.583 115.441 450.187 113.533C448.277 110.922 446.918 109.039 444.521 108.454C442.957 108.073 442.02 108.285 440.746 109.158C440.119 109.591 439.997 109.87 439.81 111.363C439.716 112.109 439.594 113.16 439.388 114.695C439.182 116.238 438.882 118.323 438.414 121.104C437.955 123.911 437.543 126.056 437.196 127.692C436.85 129.337 436.56 130.464 436.325 131.244C435.857 132.796 435.623 132.906 435.623 132.906C435.623 132.906 435.248 137.103 434.227 138.977C433.066 141.215 431.989 142.716 430.003 142.334C427.858 141.919 425.985 139.943 425.264 136.459C424.899 134.695 425.255 132.024 425.255 132.024C425.255 132.024 425.067 129.913 424.552 127.472C424.046 125.03 423.213 122.249 421.92 120.85C419.953 118.696 418.389 118.849 416.263 119.061C415.308 119.163 413.912 119.782 413.912 119.782C413.912 119.782 413.894 124.165 412.985 126.149C411.73 128.947 410.128 126.539 408.686 122.461C407.974 120.434 407.29 118.001 406.729 115.61C406.157 113.228 405.689 110.905 405.399 109.048C405.061 106.903 405.221 105.3 405.38 103.707C405.548 102.13 405.708 100.561 405.38 98.5262C404.865 95.3129 404.752 93.0322 403.02 90.5395C401.802 88.8015 400.809 88.2164 399.254 87.3856C397.437 86.4275 396.164 86.6564 395.227 87.6823C394.29 88.7251 393.71 90.5904 393.288 92.888C392.867 95.2366 392.614 98.1277 392.333 101.07C392.061 104.08 391.771 107.14 391.265 109.802C390.937 111.608 390.9 113.236 390.787 114.805C390.684 116.382 390.506 117.908 389.888 119.527C389.298 121.104 388.952 122.062 388.024 123.08C386.797 124.462 385.458 124.911 384.1 124.563C382.733 124.241 381.346 123.114 380.026 121.384C378.209 119.019 377.862 116.051 377.9 112.778C377.918 111.159 378.04 109.472 378.106 107.751C378.181 106.038 378.209 104.3 378.068 102.536C377.787 99.2638 378.059 96.6525 378.143 94.1513C378.228 91.7096 378.125 89.3949 377.085 86.7412C376.289 84.7572 375.53 83.1209 374.584 81.8152C373.638 80.552 372.505 79.6108 370.978 79.0258C368.318 78.178 367.054 80.7893 365.799 83.9264C365.171 85.5627 364.544 87.4025 363.757 89.0134C362.97 90.6667 362.005 92.0656 360.694 92.7863C358.231 94.2192 356.517 92.0572 354.194 94.2616C352.499 95.9488 351.562 98.1616 350.935 100.756C350.317 103.401 350.017 106.437 349.577 109.769C349.08 113.745 349.652 115.975 349.146 120.146C349.146 120.146 348.771 126.691 347.319 129.693C345.924 132.576 344.126 133.254 342.421 132.567C340.707 131.897 339.077 129.922 338 127.361C336.914 124.809 337.045 122.054 337.485 119.035C337.935 116.034 338.693 112.795 338.89 109.455C339.012 107.488 339.237 105.682 339.499 103.978C339.752 102.291 340.033 100.705 340.267 99.1536C340.726 96.1014 340.951 93.2187 340.286 90.1326C339.845 88.1486 339.489 86.3427 338.909 84.9692C338.328 83.6211 337.504 82.68 336.127 82.4087C334.123 82.0187 332.615 82.9174 330.545 84.7233C329.14 85.9273 327.276 88.7082 327.276 88.7082L323.558 94.9822C323.558 94.9822 321.741 98.594 320.298 100.451C318.182 103.155 316.159 104.605 314.089 105.267C312.019 105.919 309.911 105.801 307.598 105.343C307.598 105.343 305.828 104.885 304.769 104.351C302.887 103.418 301.529 102.308 300.377 100.849C299.234 99.4164 298.297 97.636 297.267 95.3553C296.284 93.2187 296.012 91.1415 295.769 89.0473C295.534 86.9701 295.328 84.8759 294.485 82.7139C293.568 80.3569 293.802 77.5336 291.685 77.1606C290.186 76.8978 289.081 78.1695 288.032 79.9754C286.983 81.7813 286.009 84.1383 284.754 85.9951C283.799 87.4195 283.059 88.776 282.412 90.0902C281.766 91.3958 281.232 92.6846 280.689 93.9648C279.603 96.5338 278.497 99.1112 276.484 101.935C275.341 103.588 274.273 105.267 273.234 106.852C272.203 108.446 271.183 109.955 270.124 111.252C267.97 113.847 265.544 115.551 262.369 115.517C259.334 115.466 257.63 114.584 255.466 112.431C253.94 110.93 253.64 108.912 253.368 106.869C253.097 104.851 252.853 102.833 251.42 101.307C250.249 100.078 249.041 98.3227 247.758 97.2544C246.484 96.2031 245.135 95.8216 243.674 97.3138C242.504 98.5262 258.473 83.9518 241.829 101.18C239.694 103.317 237.989 104.978 236.64 106.25C235.273 107.539 234.299 108.446 233.634 109.065C232.295 110.303 232.173 110.388 232.547 110.057C233.297 109.387 236.06 107.039 235.17 108.819C234.13 110.905 233.803 112.668 233.709 114.474C233.606 116.28 233.737 118.137 233.625 120.417C233.559 121.935 233.54 124.309 233.54 124.309C234.664 126.471 235.301 127.683 236.416 129.862C236.416 129.862 238.841 131.668 241.267 133.491C243.702 135.323 246.091 137.179 246.091 137.179C246.091 137.179 249.444 135.034 250.587 136.459C251.589 137.747 250.746 139.46 250.558 141.419C250.296 144.352 250.296 146.319 248.882 148.837C247.411 151.482 245.529 151.991 243.365 151.788C241.211 151.584 238.823 150.694 236.388 150.533C232.95 150.27 231.189 148.379 227.658 148.617C225.233 148.718 222.61 148.557 220.428 149.049C218.227 149.524 216.466 150.66 215.801 153.356C215.304 155.399 215.651 156.747 216.091 158.867C216.597 161.3 217.337 163.225 218.395 164.895C219.454 166.574 220.821 167.998 222.582 169.448C224.774 171.254 226.815 172.356 228.848 172.721C230.862 173.068 232.931 172.738 235.245 171.712C237.034 170.881 238.017 169.219 239.019 167.591C240.031 165.955 241.052 164.353 242.888 163.623C244.826 162.843 246.081 162.42 247.945 162.979C249.734 163.522 250.54 165.056 251.205 166.905C251.87 168.761 252.404 170.94 253.602 172.746C255.176 175.163 256.543 176.875 257.939 178.529C259.344 180.19 260.777 181.793 262.481 183.997C264.158 186.185 265.16 188.72 266.293 190.831C267.436 192.959 268.719 194.663 270.911 195.155C273.037 195.646 274.376 195.24 276.456 194.163C278.245 193.222 280.193 190.797 281.71 188.559C283.218 186.312 284.295 184.311 284.295 184.311C284.295 184.311 285.822 178.367 287.704 176.027C289.371 173.967 291.104 173.085 292.771 173.145C294.429 173.196 296.04 174.205 297.473 175.994C299.187 178.215 299.449 181.225 299.3 184.684C299.234 186.422 299.056 188.27 298.925 190.169C298.784 192.069 298.691 194.019 298.756 195.994C298.841 198.631 298.869 200.75 298.887 202.836C298.906 204.922 298.897 207.008 298.934 209.695C298.99 213.756 298.447 216.3 299.103 220.098C299.543 222.616 300.236 224.566 301.117 226.067C301.997 227.568 303.065 228.619 304.264 229.34C305.462 230.06 306.783 230.45 308.179 230.637C309.565 230.815 311.017 230.781 312.478 230.654C314.454 230.484 315.924 229.306 317.385 227.949C318.847 226.593 320.298 225.058 322.256 224.193C324.419 223.235 326.152 222.32 327.866 221.819C329.589 221.302 331.303 221.217 333.42 221.938C334.928 222.472 335.818 222.718 337.185 224.049C339.218 226.025 341.494 231.62 341.494 231.62C341.494 231.62 345.053 236.292 345.381 241.099C345.634 244.753 344.126 250.375 344.126 250.375C344.126 250.375 344.191 254.063 344.247 257.742C344.304 261.431 344.36 265.17 344.36 265.17L344.491 273.606C344.491 273.606 344.388 277.582 344.725 281.914C344.894 284.076 345.175 286.408 345.624 288.392C346.083 290.359 346.711 291.995 347.582 292.826C350.139 295.276 352.649 294.954 355.037 291.181C356.011 289.655 356.142 287.756 355.852 285.653C355.562 283.593 354.84 281.372 354.129 279.142C353.417 276.895 352.705 274.64 352.415 272.58C352.134 270.519 352.274 268.705 353.276 267.323C355.562 264.144 358.222 262.846 360.273 266.187C361.359 267.959 361.415 271.571 361.2 274.801C360.985 278.031 360.498 280.795 360.498 280.795C360.498 280.795 360.891 284.136 361.294 287.544C361.696 290.969 362.099 294.403 362.099 294.403C364.132 296.531 365.724 298.201 367.316 299.872C368.908 301.542 370.482 303.204 372.495 305.315C374.519 307.392 377.094 306.849 379.342 306.892C381.599 306.934 383.529 307.545 384.278 311.809C384.746 314.438 384.512 316.65 383.8 318.533C383.089 320.406 381.908 321.958 380.475 323.298C379.052 324.629 377.375 325.765 375.68 326.765C373.985 327.766 372.271 328.639 370.772 329.461C367.906 331.038 366.155 331.81 363.317 331.361C360.853 330.945 359.402 328.809 357.997 326.316C356.592 323.789 355.234 320.89 352.986 319.092C351.094 317.566 349.464 317.117 347.825 316.659C346.196 316.201 344.566 315.735 342.674 314.132C341.353 313.039 340.079 312.106 338.871 311.156C337.663 310.181 336.53 309.189 335.509 307.986C334.479 306.79 333.561 305.383 332.774 303.577C331.968 301.762 331.313 299.507 330.807 296.641C330.226 293.343 330.076 290.545 330.114 287.688C330.151 284.831 330.376 281.864 330.545 278.353C330.695 275.267 331.088 272.868 331.444 270.469C331.809 268.078 332.146 265.746 332.184 262.694C332.231 258.743 332.605 254.487 332.512 250.934C332.418 247.45 331.856 244.669 330.02 243.626C328.475 242.753 327.454 243.736 325.834 244.363C323.221 245.372 321.928 247.424 319.371 249.094C316.87 250.756 312.899 252.927 312.899 252.927L308.741 256.276C308.741 256.276 307.448 262.414 307.036 266.543C306.699 270.104 306.287 273.199 306.212 276.132C306.127 279.167 306.362 282.067 307.298 285.204C307.907 287.222 308.506 287.985 309.228 289.825C310.642 293.386 311.382 296.811 312.169 300.067C312.965 303.288 313.826 306.383 315.503 309.342C316.842 311.75 318.434 312.377 319.886 313.183C321.347 313.98 322.687 314.963 323.53 318.16C323.53 318.16 324.438 322.594 324.513 325.553C324.579 327.842 324.438 329.656 324.12 331.437C323.811 333.217 323.324 334.896 322.696 336.787C321.713 339.669 320.495 341.204 319.137 342.51C317.788 343.756 316.299 344.79 314.791 346.681C313.386 348.334 311.55 349.089 310.108 350.081C308.656 351.047 307.607 352.294 307.776 354.897C307.935 357.152 309.125 358.118 309.677 360.272C310.183 362.171 310.773 363.824 311.054 365.393C311.344 366.911 311.326 368.352 310.633 369.802C309.565 371.989 307.57 372.362 305.369 371.726C303.168 371.073 300.761 369.42 298.859 367.546C296.902 365.596 295.881 363.417 295.328 360.95C295.057 359.704 294.888 358.381 294.785 356.999C294.682 355.617 294.635 354.142 294.588 352.557C294.523 350.106 294.429 347.961 294.635 345.969C294.832 343.892 295.328 341.976 296.434 340.017C297.848 337.431 300.077 337.999 302.25 338.457C304.423 338.906 306.53 339.262 307.692 336.185C308.572 333.751 308.825 331.361 308.722 328.825C308.609 326.29 308.15 323.628 307.607 320.559C307.176 318.041 306.483 316.193 305.64 314.667C304.807 313.14 303.814 311.953 302.793 310.8C301.772 309.622 300.714 308.477 299.74 307.027C298.766 305.578 297.876 303.823 297.173 301.466C296.34 298.668 295.759 296.396 295.31 294.055C294.86 291.665 294.542 289.172 294.242 285.993C293.952 282.923 294.045 280.176 294.336 277.616C294.617 275.021 295.085 272.588 295.544 270.24C296.003 267.874 296.452 265.534 296.677 263.067C296.902 260.583 296.902 257.963 296.48 255.14C295.984 251.85 295.534 249.171 294.86 246.805C294.186 244.474 293.296 242.396 291.938 240.234C290.533 237.971 289.231 236.394 287.732 235.359C286.234 234.317 284.614 233.842 282.628 233.782C280.558 233.723 279.088 235.012 277.626 236.428C276.165 237.835 274.714 239.361 272.672 239.828C271.239 240.15 269.843 240.523 268.485 240.803C267.136 241.065 265.825 241.226 264.579 241.125C262.069 240.904 259.737 239.616 257.667 235.936C256.6 234.028 255.991 232.307 255.551 230.467C255.11 228.636 254.848 226.669 254.455 224.295C254.071 221.904 253.958 219.988 253.912 218.055C253.855 216.113 253.865 214.163 253.734 211.713C253.518 208.652 253.893 205.99 254.015 203.472C254.164 200.92 254.043 198.512 252.797 196.036C251.467 193.408 249.481 190.932 247.458 189.712C245.435 188.482 243.347 188.482 241.829 190.831C240.846 192.365 240.855 194.002 241.052 195.757C241.249 197.529 241.633 199.445 241.427 201.505C241.23 203.506 240.818 205.202 240.331 206.77C239.844 208.339 239.263 209.738 238.738 211.145C238.214 212.552 237.736 213.951 237.455 215.554C237.174 217.148 237.081 218.894 237.296 220.98C237.521 223.015 238.27 224.583 238.916 226.126C239.553 227.678 240.078 229.196 239.844 231.112C239.422 234.291 237.821 235.614 235.779 235.877C233.737 236.114 231.199 235.249 228.97 234.147C227.359 233.358 225.963 232.197 224.755 230.747C223.547 229.306 222.535 227.576 221.702 225.643C220.868 223.735 220.194 221.633 219.65 219.395C219.116 217.165 218.732 214.842 218.48 212.476C218.217 209.967 219.116 208.483 219.772 206.838C220.446 205.21 220.887 203.43 219.716 200.344C218.517 197.232 217.58 194.866 216.644 192.501C215.679 190.11 214.724 187.719 213.506 184.675C212.907 183.149 212.017 181.276 210.874 179.292C209.741 177.299 208.355 175.23 206.744 173.272C205.142 171.313 203.325 169.465 201.358 167.956C199.363 166.421 197.153 165.2 194.811 164.556C191.44 163.632 189.229 162.954 186.242 164.081C184.228 164.861 182.851 166.031 181.877 167.642C180.912 169.253 180.35 171.263 179.994 173.781C179.732 175.782 180.21 177.537 180.697 179.292C181.184 181.047 181.69 182.802 181.484 184.828C180.968 190.263 178.112 186.43 174.646 179.953C173.775 178.334 172.876 176.57 171.977 174.807C171.078 173.077 170.179 171.347 169.317 169.686C168.446 168.024 167.612 166.404 166.816 164.946C166.039 163.522 165.299 162.208 164.643 161.114C163.285 158.833 162.171 157.087 161.206 155.264C160.26 153.458 159.455 151.584 158.724 149.091C158.181 147.243 158.265 145.615 158.265 144.038C158.274 142.461 158.209 140.935 157.366 139.307C156.448 137.518 155.427 136.238 154.144 135.255C152.87 134.339 151.315 133.737 149.33 133.203C147.26 132.618 145.115 132.372 142.961 132.457C140.788 132.431 138.606 132.576 136.48 132.957C134.353 133.33 132.302 134.017 130.392 134.966C128.49 135.848 126.729 137.001 125.203 138.46C123.133 140.477 123.32 142.919 123.507 145.344C123.732 147.777 123.957 150.194 121.943 152.101C119.967 154 117.804 155.187 115.312 155.688C112.821 156.137 109.992 155.942 106.695 155.137C104.551 154.611 102.921 153.432 101.544 151.957C100.177 150.473 99.0808 148.693 97.9943 146.963C96.9172 145.234 95.8588 143.564 94.5382 142.292C93.2269 141.029 91.6441 140.172 89.5273 140.07C86.755 139.943 84.657 140.427 82.9711 141.41C81.3039 142.394 80.077 143.886 79.028 145.768C78.2974 147.15 78.2599 148.54 78.6159 149.956C78.9811 151.372 79.7304 152.814 80.5921 154.297C81.4538 155.781 82.4185 157.307 83.2052 158.884C83.992 160.47 84.6008 162.097 84.7506 163.802C85.0129 166.498 85.5093 168.227 84.7319 170.516C84.2449 172 83.7204 173.221 82.8868 174.145C82.0532 175.069 80.9293 175.688 79.234 175.96C76.3961 176.417 74.0546 174.612 71.61 172.271C70.3831 171.101 69.1374 169.796 67.798 168.583C66.4587 167.362 65.0163 166.226 63.4147 165.387C60.4176 163.827 57.8325 163.479 55.3692 162.945C52.9153 162.411 50.5738 161.69 48.0169 159.359C46.1811 157.689 45.4974 155.493 45.3663 153.153C45.3101 151.983 45.385 150.787 45.5348 149.592C45.6941 148.396 45.9095 147.218 46.1249 146.099C46.5838 143.86 46.996 141.851 46.6962 140.435C46.4153 139.019 45.4037 138.205 43.0154 138.341C40.6645 138.493 38.6133 138.629 36.712 138.756C34.8388 138.892 33.1154 139.019 31.4108 139.155C29.7249 139.29 28.0671 139.426 26.3156 139.579C24.5829 139.731 22.7659 139.901 20.7522 140.096C18.7759 140.299 17.1837 140.147 15.8537 139.723C14.5331 139.299 13.4654 138.595 12.5194 137.68C11.5828 136.764 10.7773 135.645 9.98119 134.39C9.19443 133.135 8.42642 131.753 7.55537 130.303C6.45017 128.379 5.74772 125.674 5.45737 123.47C5.24195 121.265 5.27004 119.536 5.27004 119.536C5.27004 119.536 5.11082 118.323 5.00779 116.729C4.98906 115.135 4.98906 113.168 5.18575 111.668C5.45737 110.133 5.62596 108.709 5.98187 107.471C6.34714 106.233 6.89038 105.173 7.94874 104.368C9.88752 102.901 11.3393 104.351 13.5684 104.359Z" stroke="black" stroke-width="9.23284"/>
</svg>
