<svg width="755" height="388" viewBox="0 0 755 388" fill="none" xmlns="http://www.w3.org/2000/svg">
<path d="M47.4302 150.577L47.4302 237.383" stroke="black" stroke-width="8" stroke-linecap="round"/>
<path d="M707.57 150.577L707.57 237.383" stroke="black" stroke-width="8" stroke-linecap="round"/>
<path d="M751 168.209L751 219.75" stroke="black" stroke-width="8" stroke-linecap="round"/>
<path d="M4 168.209L4 219.75" stroke="black" stroke-width="8" stroke-linecap="round"/>
<path d="M90.8605 128.875L90.8605 257.728" stroke="black" stroke-width="8" stroke-linecap="round"/>
<path d="M664.14 128.875L664.14 257.728" stroke="black" stroke-width="8" stroke-linecap="round"/>
<path d="M134.291 92.254L134.291 295.705" stroke="black" stroke-width="8" stroke-linecap="round"/>
<path d="M620.709 100.392L620.709 303.843" stroke="black" stroke-width="8" stroke-linecap="round"/>
<path d="M177.721 92.254L177.721 343.177" stroke="black" stroke-width="8" stroke-linecap="round"/>
<path d="M577.279 92.254L577.279 343.177" stroke="black" stroke-width="8" stroke-linecap="round"/>
<path d="M221.151 44.782L221.151 295.705" stroke="black" stroke-width="8" stroke-linecap="round"/>
<path d="M533.849 44.782L533.849 295.705" stroke="black" stroke-width="8" stroke-linecap="round"/>
<path d="M264.581 44.782L264.581 343.177" stroke="black" stroke-width="8" stroke-linecap="round"/>
<path d="M308.012 44.782L308.012 383.868" stroke="black" stroke-width="8" stroke-linecap="round"/>
<path d="M351.442 4.09167L351.442 343.177" stroke="black" stroke-width="8" stroke-linecap="round"/>
<path d="M397.767 44.782L394.798 370.292" stroke="black" stroke-width="8" stroke-linecap="round"/>
<path d="M444.167 17.6552L441.198 343.165" stroke="black" stroke-width="8" stroke-linecap="round"/>
<path d="M490.493 44.782L487.523 370.292" stroke="black" stroke-width="8" stroke-linecap="round"/>
</svg>
